G04 EAGLE Gerber RS-274X export*
G75*
%MOMM*%
%FSLAX34Y34*%
%LPD*%
%INBottom Copper*%
%IPPOS*%
%AMOC8*
5,1,8,0,0,1.08239X$1,22.5*%
G01*
%ADD10C,0.090000*%
%ADD11C,0.300000*%
%ADD12C,0.045000*%
%ADD13C,1.200000*%
%ADD14C,1.100000*%
%ADD15C,0.200000*%
%ADD16C,0.600000*%
%ADD17C,0.300000*%

G36*
X139564Y3010D02*
X139564Y3010D01*
X139628Y3009D01*
X139703Y3030D01*
X139779Y3041D01*
X139838Y3067D01*
X139900Y3084D01*
X139966Y3125D01*
X140036Y3157D01*
X140085Y3199D01*
X140140Y3232D01*
X140192Y3290D01*
X140250Y3340D01*
X140286Y3394D01*
X140329Y3442D01*
X140362Y3511D01*
X140405Y3576D01*
X140424Y3638D01*
X140452Y3695D01*
X140463Y3765D01*
X140487Y3846D01*
X140488Y3931D01*
X140499Y4000D01*
X140499Y25243D01*
X142333Y27076D01*
X142404Y27171D01*
X142479Y27263D01*
X142488Y27284D01*
X142502Y27302D01*
X142544Y27413D01*
X142591Y27522D01*
X142593Y27544D01*
X142602Y27566D01*
X142611Y27684D01*
X142625Y27802D01*
X142622Y27824D01*
X142623Y27847D01*
X142599Y27963D01*
X142580Y28080D01*
X142570Y28101D01*
X142566Y28123D01*
X142510Y28228D01*
X142459Y28335D01*
X142444Y28352D01*
X142433Y28372D01*
X142350Y28457D01*
X142272Y28546D01*
X142253Y28557D01*
X142236Y28574D01*
X142074Y28666D01*
X142009Y28706D01*
X139751Y29641D01*
X137641Y31751D01*
X136499Y34508D01*
X136499Y37492D01*
X136968Y38623D01*
X136970Y38632D01*
X136975Y38641D01*
X137005Y38770D01*
X137015Y38808D01*
X137019Y38820D01*
X137019Y38822D01*
X137038Y38896D01*
X137038Y38906D01*
X137040Y38915D01*
X137033Y39048D01*
X137029Y39178D01*
X137026Y39187D01*
X137025Y39197D01*
X136982Y39321D01*
X136941Y39446D01*
X136936Y39454D01*
X136933Y39463D01*
X136888Y39525D01*
X136783Y39679D01*
X136764Y39695D01*
X136751Y39712D01*
X131499Y44964D01*
X131499Y56550D01*
X131486Y56645D01*
X131481Y56741D01*
X131466Y56785D01*
X131459Y56829D01*
X131420Y56917D01*
X131388Y57008D01*
X131363Y57042D01*
X131343Y57086D01*
X131260Y57184D01*
X131207Y57257D01*
X130257Y58207D01*
X130180Y58264D01*
X130109Y58329D01*
X130068Y58349D01*
X130031Y58376D01*
X129941Y58410D01*
X129855Y58452D01*
X129813Y58458D01*
X129767Y58475D01*
X129640Y58485D01*
X129550Y58499D01*
X118508Y58499D01*
X115801Y61207D01*
X115724Y61264D01*
X115653Y61329D01*
X115612Y61349D01*
X115575Y61376D01*
X115485Y61410D01*
X115399Y61452D01*
X115357Y61458D01*
X115311Y61475D01*
X115184Y61485D01*
X115094Y61499D01*
X101964Y61499D01*
X91257Y72207D01*
X91180Y72264D01*
X91109Y72329D01*
X91068Y72349D01*
X91031Y72376D01*
X90941Y72410D01*
X90855Y72452D01*
X90813Y72458D01*
X90767Y72475D01*
X90640Y72485D01*
X90550Y72499D01*
X85964Y72499D01*
X75499Y82964D01*
X75499Y92550D01*
X75486Y92645D01*
X75481Y92741D01*
X75466Y92784D01*
X75459Y92829D01*
X75420Y92917D01*
X75388Y93008D01*
X75363Y93042D01*
X75343Y93086D01*
X75260Y93184D01*
X75207Y93257D01*
X73257Y95207D01*
X71499Y96964D01*
X71499Y103036D01*
X73964Y105501D01*
X75000Y105501D01*
X75064Y105510D01*
X75128Y105509D01*
X75203Y105530D01*
X75279Y105541D01*
X75338Y105567D01*
X75400Y105584D01*
X75466Y105625D01*
X75536Y105657D01*
X75585Y105699D01*
X75640Y105732D01*
X75692Y105790D01*
X75750Y105840D01*
X75786Y105894D01*
X75829Y105942D01*
X75862Y106011D01*
X75905Y106076D01*
X75924Y106138D01*
X75952Y106195D01*
X75963Y106265D01*
X75987Y106346D01*
X75988Y106431D01*
X75999Y106500D01*
X75999Y110087D01*
X76027Y110135D01*
X76044Y110210D01*
X76072Y110283D01*
X76077Y110347D01*
X76091Y110409D01*
X76088Y110487D01*
X76094Y110564D01*
X76080Y110627D01*
X76077Y110691D01*
X76052Y110764D01*
X76036Y110840D01*
X76006Y110897D01*
X75999Y110915D01*
X75999Y114990D01*
X77010Y116001D01*
X86990Y116001D01*
X88001Y114990D01*
X88001Y110913D01*
X87973Y110865D01*
X87956Y110789D01*
X87928Y110717D01*
X87923Y110653D01*
X87909Y110590D01*
X87912Y110513D01*
X87907Y110436D01*
X87920Y110373D01*
X87923Y110309D01*
X87948Y110235D01*
X87964Y110160D01*
X87994Y110103D01*
X88001Y110085D01*
X88001Y106000D01*
X88010Y105936D01*
X88009Y105872D01*
X88030Y105797D01*
X88041Y105721D01*
X88067Y105662D01*
X88084Y105600D01*
X88125Y105534D01*
X88157Y105464D01*
X88199Y105415D01*
X88232Y105360D01*
X88290Y105308D01*
X88340Y105250D01*
X88394Y105214D01*
X88442Y105171D01*
X88511Y105138D01*
X88576Y105095D01*
X88638Y105076D01*
X88695Y105048D01*
X88765Y105037D01*
X88846Y105013D01*
X88931Y105012D01*
X89000Y105001D01*
X93087Y105001D01*
X93135Y104973D01*
X93211Y104956D01*
X93283Y104928D01*
X93347Y104923D01*
X93410Y104909D01*
X93487Y104912D01*
X93564Y104907D01*
X93627Y104920D01*
X93691Y104923D01*
X93765Y104948D01*
X93840Y104964D01*
X93897Y104994D01*
X93915Y105001D01*
X98087Y105001D01*
X98135Y104973D01*
X98211Y104956D01*
X98283Y104928D01*
X98347Y104923D01*
X98410Y104909D01*
X98487Y104912D01*
X98564Y104907D01*
X98627Y104920D01*
X98691Y104923D01*
X98765Y104948D01*
X98840Y104964D01*
X98897Y104994D01*
X98915Y105001D01*
X103000Y105001D01*
X103064Y105010D01*
X103128Y105009D01*
X103203Y105030D01*
X103279Y105041D01*
X103338Y105067D01*
X103400Y105084D01*
X103466Y105125D01*
X103536Y105157D01*
X103585Y105199D01*
X103640Y105232D01*
X103692Y105290D01*
X103750Y105340D01*
X103786Y105394D01*
X103829Y105442D01*
X103862Y105511D01*
X103905Y105576D01*
X103924Y105638D01*
X103952Y105695D01*
X103963Y105765D01*
X103987Y105846D01*
X103988Y105931D01*
X103999Y106000D01*
X103999Y110087D01*
X104027Y110135D01*
X104044Y110211D01*
X104072Y110283D01*
X104077Y110347D01*
X104091Y110410D01*
X104088Y110487D01*
X104093Y110564D01*
X104080Y110627D01*
X104077Y110691D01*
X104052Y110765D01*
X104036Y110840D01*
X104006Y110897D01*
X103999Y110915D01*
X103999Y115087D01*
X104027Y115135D01*
X104044Y115211D01*
X104072Y115283D01*
X104077Y115347D01*
X104091Y115410D01*
X104088Y115487D01*
X104093Y115564D01*
X104080Y115627D01*
X104077Y115691D01*
X104052Y115765D01*
X104036Y115840D01*
X104006Y115897D01*
X103999Y115915D01*
X103999Y120000D01*
X103990Y120064D01*
X103991Y120128D01*
X103970Y120203D01*
X103959Y120279D01*
X103933Y120338D01*
X103916Y120400D01*
X103875Y120466D01*
X103843Y120536D01*
X103801Y120585D01*
X103768Y120640D01*
X103710Y120692D01*
X103660Y120750D01*
X103606Y120786D01*
X103558Y120829D01*
X103489Y120862D01*
X103424Y120905D01*
X103362Y120924D01*
X103305Y120952D01*
X103235Y120963D01*
X103154Y120987D01*
X103069Y120988D01*
X103000Y120999D01*
X98913Y120999D01*
X98865Y121027D01*
X98789Y121044D01*
X98717Y121072D01*
X98653Y121077D01*
X98590Y121091D01*
X98513Y121088D01*
X98436Y121093D01*
X98373Y121080D01*
X98309Y121077D01*
X98235Y121052D01*
X98160Y121036D01*
X98103Y121006D01*
X98085Y120999D01*
X93913Y120999D01*
X93865Y121027D01*
X93789Y121044D01*
X93717Y121072D01*
X93653Y121077D01*
X93590Y121091D01*
X93513Y121088D01*
X93436Y121093D01*
X93373Y121080D01*
X93309Y121077D01*
X93235Y121052D01*
X93160Y121036D01*
X93103Y121006D01*
X93085Y120999D01*
X89450Y120999D01*
X89355Y120986D01*
X89259Y120981D01*
X89216Y120966D01*
X89171Y120959D01*
X89083Y120920D01*
X88992Y120888D01*
X88958Y120863D01*
X88914Y120843D01*
X88816Y120760D01*
X88743Y120707D01*
X88036Y119999D01*
X85646Y119999D01*
X85631Y120003D01*
X85566Y119999D01*
X85550Y119999D01*
X85481Y120005D01*
X85455Y119999D01*
X68657Y119999D01*
X68562Y119986D01*
X68466Y119981D01*
X68423Y119966D01*
X68378Y119959D01*
X68290Y119920D01*
X68199Y119888D01*
X68165Y119863D01*
X68121Y119843D01*
X68023Y119760D01*
X67950Y119707D01*
X64293Y116050D01*
X64236Y115973D01*
X64171Y115902D01*
X64151Y115861D01*
X64124Y115824D01*
X64090Y115734D01*
X64048Y115648D01*
X64042Y115606D01*
X64025Y115560D01*
X64015Y115433D01*
X64001Y115343D01*
X64001Y105757D01*
X59243Y100999D01*
X57272Y100999D01*
X57177Y100986D01*
X57081Y100981D01*
X57038Y100966D01*
X56993Y100959D01*
X56905Y100920D01*
X56814Y100888D01*
X56780Y100863D01*
X56736Y100843D01*
X56639Y100760D01*
X56565Y100707D01*
X55358Y99499D01*
X48642Y99499D01*
X47499Y100642D01*
X47499Y107358D01*
X48642Y108501D01*
X55358Y108501D01*
X56101Y107758D01*
X56152Y107719D01*
X56197Y107673D01*
X56265Y107635D01*
X56326Y107589D01*
X56387Y107566D01*
X56443Y107534D01*
X56518Y107516D01*
X56590Y107489D01*
X56654Y107484D01*
X56717Y107469D01*
X56795Y107473D01*
X56872Y107467D01*
X56934Y107480D01*
X56999Y107484D01*
X57072Y107509D01*
X57148Y107525D01*
X57204Y107555D01*
X57265Y107576D01*
X57322Y107617D01*
X57397Y107657D01*
X57458Y107716D01*
X57514Y107758D01*
X57707Y107950D01*
X57764Y108027D01*
X57829Y108098D01*
X57849Y108139D01*
X57876Y108176D01*
X57910Y108266D01*
X57952Y108352D01*
X57958Y108394D01*
X57975Y108440D01*
X57985Y108567D01*
X57999Y108657D01*
X57999Y118243D01*
X60050Y120293D01*
X60550Y120793D01*
X60569Y120819D01*
X60594Y120840D01*
X60654Y120932D01*
X60719Y121019D01*
X60730Y121049D01*
X60748Y121076D01*
X60780Y121181D01*
X60819Y121283D01*
X60821Y121315D01*
X60830Y121346D01*
X60832Y121455D01*
X60840Y121564D01*
X60834Y121596D01*
X60834Y121628D01*
X60805Y121733D01*
X60783Y121840D01*
X60768Y121869D01*
X60759Y121900D01*
X60702Y121993D01*
X60650Y122089D01*
X60628Y122112D01*
X60611Y122140D01*
X60530Y122213D01*
X60454Y122291D01*
X60426Y122307D01*
X60402Y122329D01*
X60303Y122376D01*
X60208Y122430D01*
X60177Y122438D01*
X60148Y122452D01*
X60058Y122466D01*
X59934Y122495D01*
X59885Y122493D01*
X59843Y122499D01*
X59136Y122499D01*
X58928Y122707D01*
X58852Y122764D01*
X58780Y122829D01*
X58739Y122849D01*
X58703Y122876D01*
X58613Y122910D01*
X58526Y122952D01*
X58484Y122958D01*
X58439Y122975D01*
X58311Y122985D01*
X58222Y122999D01*
X57272Y122999D01*
X57177Y122986D01*
X57081Y122981D01*
X57038Y122966D01*
X56993Y122959D01*
X56905Y122920D01*
X56814Y122888D01*
X56780Y122863D01*
X56736Y122843D01*
X56638Y122760D01*
X56565Y122707D01*
X55358Y121499D01*
X48642Y121499D01*
X48399Y121742D01*
X48348Y121781D01*
X48303Y121827D01*
X48235Y121865D01*
X48173Y121912D01*
X48113Y121934D01*
X48057Y121966D01*
X47982Y121984D01*
X47910Y122011D01*
X47846Y122016D01*
X47783Y122031D01*
X47705Y122027D01*
X47628Y122033D01*
X47566Y122020D01*
X47501Y122016D01*
X47428Y121991D01*
X47352Y121975D01*
X47296Y121945D01*
X47235Y121924D01*
X47178Y121883D01*
X47103Y121843D01*
X47043Y121784D01*
X46986Y121742D01*
X39793Y114550D01*
X39736Y114473D01*
X39671Y114402D01*
X39651Y114361D01*
X39624Y114324D01*
X39590Y114234D01*
X39548Y114148D01*
X39542Y114106D01*
X39525Y114060D01*
X39515Y113933D01*
X39501Y113843D01*
X39501Y73521D01*
X39514Y73426D01*
X39519Y73330D01*
X39534Y73287D01*
X39541Y73242D01*
X39580Y73154D01*
X39612Y73063D01*
X39637Y73029D01*
X39657Y72985D01*
X39740Y72887D01*
X39793Y72814D01*
X42314Y70293D01*
X42391Y70236D01*
X42462Y70171D01*
X42503Y70151D01*
X42540Y70124D01*
X42630Y70090D01*
X42716Y70048D01*
X42758Y70042D01*
X42804Y70025D01*
X42931Y70015D01*
X43021Y70001D01*
X46728Y70001D01*
X46823Y70014D01*
X46919Y70019D01*
X46962Y70034D01*
X47007Y70041D01*
X47095Y70080D01*
X47186Y70112D01*
X47220Y70137D01*
X47264Y70157D01*
X47362Y70240D01*
X47435Y70293D01*
X48642Y71501D01*
X55358Y71501D01*
X56293Y70565D01*
X56345Y70527D01*
X56390Y70481D01*
X56457Y70443D01*
X56519Y70396D01*
X56579Y70373D01*
X56635Y70342D01*
X56710Y70324D01*
X56783Y70297D01*
X56847Y70292D01*
X56909Y70277D01*
X56987Y70281D01*
X57064Y70275D01*
X57127Y70288D01*
X57191Y70291D01*
X57264Y70317D01*
X57340Y70332D01*
X57397Y70362D01*
X57458Y70384D01*
X57514Y70425D01*
X57589Y70465D01*
X57650Y70524D01*
X57707Y70565D01*
X58707Y71565D01*
X58764Y71642D01*
X58829Y71714D01*
X58849Y71754D01*
X58876Y71791D01*
X58910Y71881D01*
X58952Y71967D01*
X58958Y72009D01*
X58975Y72055D01*
X58985Y72182D01*
X58999Y72272D01*
X58999Y73728D01*
X58986Y73823D01*
X58981Y73919D01*
X58966Y73962D01*
X58959Y74007D01*
X58920Y74095D01*
X58888Y74186D01*
X58863Y74220D01*
X58843Y74264D01*
X58760Y74362D01*
X58707Y74435D01*
X57499Y75642D01*
X57499Y82358D01*
X58642Y83501D01*
X65358Y83501D01*
X66501Y82358D01*
X66501Y75642D01*
X65293Y74435D01*
X65236Y74358D01*
X65171Y74286D01*
X65151Y74245D01*
X65124Y74209D01*
X65090Y74119D01*
X65048Y74033D01*
X65042Y73991D01*
X65025Y73945D01*
X65015Y73818D01*
X65001Y73728D01*
X65001Y72272D01*
X65014Y72177D01*
X65019Y72081D01*
X65034Y72038D01*
X65041Y71993D01*
X65080Y71905D01*
X65112Y71814D01*
X65137Y71780D01*
X65157Y71736D01*
X65240Y71639D01*
X65293Y71565D01*
X66501Y70358D01*
X66501Y63642D01*
X65293Y62435D01*
X65236Y62358D01*
X65171Y62286D01*
X65151Y62245D01*
X65124Y62209D01*
X65090Y62119D01*
X65048Y62033D01*
X65042Y61991D01*
X65025Y61945D01*
X65015Y61818D01*
X65001Y61728D01*
X65001Y61500D01*
X65010Y61436D01*
X65009Y61372D01*
X65030Y61297D01*
X65041Y61221D01*
X65067Y61162D01*
X65084Y61100D01*
X65125Y61034D01*
X65157Y60964D01*
X65199Y60915D01*
X65232Y60860D01*
X65290Y60808D01*
X65340Y60750D01*
X65394Y60714D01*
X65442Y60671D01*
X65511Y60638D01*
X65576Y60595D01*
X65638Y60576D01*
X65695Y60548D01*
X65765Y60537D01*
X65846Y60513D01*
X65852Y60513D01*
X68501Y57864D01*
X68501Y54136D01*
X67072Y52707D01*
X67052Y52681D01*
X67028Y52660D01*
X66968Y52568D01*
X66902Y52481D01*
X66891Y52451D01*
X66873Y52424D01*
X66841Y52319D01*
X66803Y52217D01*
X66800Y52185D01*
X66791Y52154D01*
X66789Y52045D01*
X66781Y51936D01*
X66788Y51904D01*
X66787Y51872D01*
X66816Y51767D01*
X66839Y51660D01*
X66854Y51631D01*
X66862Y51600D01*
X66920Y51507D01*
X66971Y51411D01*
X66993Y51388D01*
X67010Y51360D01*
X67092Y51287D01*
X67168Y51209D01*
X67196Y51193D01*
X67220Y51171D01*
X67318Y51124D01*
X67413Y51070D01*
X67445Y51062D01*
X67474Y51048D01*
X67563Y51034D01*
X67688Y51005D01*
X67736Y51007D01*
X67778Y51001D01*
X70343Y51001D01*
X70438Y51014D01*
X70534Y51019D01*
X70577Y51034D01*
X70622Y51041D01*
X70710Y51080D01*
X70801Y51112D01*
X70835Y51137D01*
X70879Y51157D01*
X70977Y51240D01*
X71050Y51293D01*
X72207Y52450D01*
X72264Y52527D01*
X72329Y52598D01*
X72349Y52639D01*
X72376Y52676D01*
X72410Y52766D01*
X72452Y52852D01*
X72458Y52894D01*
X72475Y52940D01*
X72485Y53067D01*
X72499Y53157D01*
X72499Y54864D01*
X75136Y57501D01*
X78864Y57501D01*
X81501Y54864D01*
X81501Y53157D01*
X81514Y53062D01*
X81519Y52966D01*
X81534Y52923D01*
X81541Y52878D01*
X81580Y52790D01*
X81612Y52699D01*
X81637Y52665D01*
X81657Y52621D01*
X81740Y52523D01*
X81793Y52450D01*
X82950Y51293D01*
X83027Y51236D01*
X83098Y51171D01*
X83139Y51151D01*
X83176Y51124D01*
X83266Y51090D01*
X83352Y51048D01*
X83394Y51042D01*
X83440Y51025D01*
X83567Y51015D01*
X83657Y51001D01*
X101243Y51001D01*
X103293Y48950D01*
X103793Y48450D01*
X103819Y48431D01*
X103840Y48406D01*
X103932Y48346D01*
X104019Y48281D01*
X104049Y48270D01*
X104076Y48252D01*
X104181Y48220D01*
X104283Y48181D01*
X104315Y48179D01*
X104346Y48170D01*
X104455Y48168D01*
X104564Y48160D01*
X104596Y48166D01*
X104628Y48166D01*
X104733Y48195D01*
X104840Y48217D01*
X104869Y48232D01*
X104900Y48241D01*
X104993Y48298D01*
X105089Y48350D01*
X105112Y48372D01*
X105140Y48389D01*
X105213Y48470D01*
X105291Y48546D01*
X105307Y48574D01*
X105329Y48598D01*
X105376Y48697D01*
X105430Y48792D01*
X105438Y48823D01*
X105452Y48852D01*
X105466Y48942D01*
X105495Y49066D01*
X105493Y49115D01*
X105499Y49157D01*
X105499Y49864D01*
X108136Y52501D01*
X111864Y52501D01*
X114501Y49864D01*
X114501Y46084D01*
X114488Y46067D01*
X114465Y46007D01*
X114434Y45951D01*
X114416Y45875D01*
X114389Y45803D01*
X114384Y45739D01*
X114369Y45676D01*
X114373Y45599D01*
X114367Y45522D01*
X114380Y45459D01*
X114383Y45395D01*
X114409Y45321D01*
X114424Y45246D01*
X114455Y45189D01*
X114476Y45128D01*
X114517Y45072D01*
X114557Y44997D01*
X114616Y44936D01*
X114657Y44879D01*
X117501Y42036D01*
X117501Y22850D01*
X117514Y22755D01*
X117519Y22659D01*
X117534Y22616D01*
X117541Y22571D01*
X117580Y22483D01*
X117612Y22392D01*
X117637Y22358D01*
X117657Y22314D01*
X117740Y22216D01*
X117793Y22143D01*
X121070Y18866D01*
X121078Y18860D01*
X121084Y18853D01*
X121190Y18776D01*
X121296Y18697D01*
X121305Y18693D01*
X121313Y18688D01*
X121436Y18644D01*
X121560Y18597D01*
X121569Y18597D01*
X121578Y18593D01*
X121710Y18586D01*
X121841Y18575D01*
X121850Y18577D01*
X121860Y18577D01*
X121935Y18595D01*
X122117Y18633D01*
X122138Y18644D01*
X122159Y18649D01*
X123007Y19001D01*
X125793Y19001D01*
X128366Y17935D01*
X130335Y15966D01*
X131401Y13393D01*
X131401Y10607D01*
X130335Y8034D01*
X128366Y6065D01*
X125793Y4999D01*
X123007Y4999D01*
X120434Y6065D01*
X118465Y8034D01*
X117399Y10607D01*
X117399Y13393D01*
X117751Y14241D01*
X117753Y14250D01*
X117758Y14258D01*
X117788Y14387D01*
X117821Y14514D01*
X117820Y14523D01*
X117823Y14532D01*
X117816Y14665D01*
X117812Y14796D01*
X117809Y14805D01*
X117808Y14814D01*
X117765Y14939D01*
X117724Y15064D01*
X117719Y15072D01*
X117716Y15081D01*
X117670Y15143D01*
X117565Y15297D01*
X117547Y15312D01*
X117534Y15330D01*
X114257Y18607D01*
X112760Y20103D01*
X112709Y20142D01*
X112664Y20188D01*
X112596Y20226D01*
X112535Y20273D01*
X112474Y20295D01*
X112418Y20327D01*
X112343Y20345D01*
X112271Y20372D01*
X112207Y20377D01*
X112144Y20392D01*
X112067Y20388D01*
X111989Y20394D01*
X111927Y20381D01*
X111862Y20378D01*
X111789Y20352D01*
X111713Y20336D01*
X111657Y20306D01*
X111596Y20285D01*
X111539Y20244D01*
X111464Y20204D01*
X111404Y20145D01*
X111347Y20103D01*
X110950Y19707D01*
X106073Y14830D01*
X106068Y14822D01*
X106060Y14816D01*
X105983Y14709D01*
X105904Y14604D01*
X105901Y14595D01*
X105895Y14587D01*
X105851Y14463D01*
X105804Y14340D01*
X105804Y14331D01*
X105800Y14322D01*
X105793Y14190D01*
X105783Y14059D01*
X105785Y14050D01*
X105784Y14040D01*
X105802Y13965D01*
X105840Y13783D01*
X105851Y13762D01*
X105857Y13741D01*
X106001Y13393D01*
X106001Y10607D01*
X104935Y8034D01*
X102966Y6065D01*
X100393Y4999D01*
X97607Y4999D01*
X95034Y6065D01*
X93065Y8034D01*
X91999Y10607D01*
X91999Y13393D01*
X93065Y15966D01*
X95034Y17935D01*
X97607Y19001D01*
X100393Y19001D01*
X100741Y18857D01*
X100750Y18854D01*
X100758Y18850D01*
X100887Y18819D01*
X101014Y18787D01*
X101023Y18787D01*
X101032Y18785D01*
X101165Y18791D01*
X101296Y18796D01*
X101305Y18798D01*
X101314Y18799D01*
X101439Y18842D01*
X101564Y18883D01*
X101572Y18888D01*
X101581Y18891D01*
X101643Y18937D01*
X101797Y19042D01*
X101812Y19060D01*
X101830Y19073D01*
X106707Y23950D01*
X106764Y24027D01*
X106829Y24098D01*
X106849Y24139D01*
X106876Y24176D01*
X106910Y24266D01*
X106952Y24352D01*
X106958Y24394D01*
X106975Y24440D01*
X106985Y24567D01*
X106999Y24657D01*
X106999Y36343D01*
X106986Y36438D01*
X106981Y36534D01*
X106966Y36577D01*
X106959Y36622D01*
X106920Y36710D01*
X106888Y36801D01*
X106863Y36835D01*
X106843Y36879D01*
X106760Y36977D01*
X106707Y37050D01*
X99050Y44707D01*
X98973Y44764D01*
X98902Y44829D01*
X98861Y44849D01*
X98824Y44876D01*
X98734Y44910D01*
X98648Y44952D01*
X98606Y44958D01*
X98560Y44975D01*
X98433Y44985D01*
X98343Y44999D01*
X80757Y44999D01*
X77707Y48050D01*
X77655Y48088D01*
X77610Y48134D01*
X77543Y48173D01*
X77481Y48219D01*
X77421Y48242D01*
X77365Y48273D01*
X77290Y48291D01*
X77217Y48319D01*
X77153Y48324D01*
X77091Y48338D01*
X77013Y48334D01*
X76936Y48340D01*
X76873Y48327D01*
X76809Y48324D01*
X76736Y48299D01*
X76660Y48283D01*
X76603Y48253D01*
X76542Y48231D01*
X76486Y48190D01*
X76411Y48150D01*
X76350Y48091D01*
X76293Y48050D01*
X73243Y44999D01*
X64950Y44999D01*
X64918Y44995D01*
X64886Y44997D01*
X64779Y44975D01*
X64670Y44959D01*
X64641Y44946D01*
X64610Y44940D01*
X64513Y44888D01*
X64414Y44843D01*
X64389Y44822D01*
X64361Y44807D01*
X64282Y44731D01*
X64199Y44660D01*
X64182Y44633D01*
X64159Y44610D01*
X64105Y44515D01*
X64045Y44424D01*
X64035Y44393D01*
X64019Y44365D01*
X63994Y44258D01*
X63962Y44154D01*
X63962Y44122D01*
X63955Y44091D01*
X63960Y43981D01*
X63959Y43872D01*
X63967Y43841D01*
X63969Y43809D01*
X64005Y43706D01*
X64034Y43600D01*
X64051Y43573D01*
X64061Y43542D01*
X64115Y43469D01*
X64182Y43360D01*
X64208Y43337D01*
X64212Y43330D01*
X64224Y43319D01*
X64243Y43293D01*
X72501Y35036D01*
X72501Y34500D01*
X72510Y34436D01*
X72509Y34372D01*
X72530Y34297D01*
X72541Y34221D01*
X72567Y34162D01*
X72584Y34100D01*
X72625Y34034D01*
X72657Y33964D01*
X72699Y33915D01*
X72732Y33860D01*
X72790Y33808D01*
X72840Y33750D01*
X72894Y33714D01*
X72942Y33671D01*
X73011Y33638D01*
X73076Y33595D01*
X73138Y33576D01*
X73195Y33548D01*
X73265Y33537D01*
X73346Y33513D01*
X74517Y32341D01*
X74530Y32297D01*
X74541Y32221D01*
X74567Y32162D01*
X74584Y32100D01*
X74625Y32034D01*
X74657Y31964D01*
X74699Y31915D01*
X74732Y31860D01*
X74790Y31808D01*
X74840Y31750D01*
X74894Y31714D01*
X74942Y31671D01*
X75011Y31638D01*
X75076Y31595D01*
X75138Y31576D01*
X75195Y31548D01*
X75265Y31537D01*
X75346Y31513D01*
X75431Y31512D01*
X75500Y31501D01*
X76500Y31501D01*
X76564Y31510D01*
X76628Y31509D01*
X76703Y31530D01*
X76779Y31541D01*
X76838Y31567D01*
X76900Y31584D01*
X76966Y31625D01*
X77036Y31657D01*
X77085Y31699D01*
X77140Y31732D01*
X77192Y31790D01*
X77250Y31840D01*
X77286Y31894D01*
X77329Y31942D01*
X77362Y32011D01*
X77405Y32076D01*
X77424Y32138D01*
X77452Y32195D01*
X77463Y32265D01*
X77487Y32346D01*
X78642Y33501D01*
X85358Y33501D01*
X86501Y32358D01*
X86501Y25642D01*
X85358Y24499D01*
X78642Y24499D01*
X77483Y25659D01*
X77470Y25703D01*
X77459Y25779D01*
X77433Y25838D01*
X77416Y25900D01*
X77375Y25966D01*
X77343Y26036D01*
X77301Y26085D01*
X77268Y26140D01*
X77210Y26192D01*
X77160Y26250D01*
X77106Y26286D01*
X77058Y26329D01*
X76989Y26362D01*
X76924Y26405D01*
X76862Y26424D01*
X76805Y26452D01*
X76735Y26463D01*
X76654Y26487D01*
X76569Y26488D01*
X76500Y26499D01*
X75500Y26499D01*
X75436Y26490D01*
X75372Y26491D01*
X75297Y26470D01*
X75221Y26459D01*
X75162Y26433D01*
X75100Y26416D01*
X75034Y26375D01*
X74964Y26343D01*
X74915Y26301D01*
X74860Y26268D01*
X74808Y26210D01*
X74750Y26160D01*
X74714Y26106D01*
X74671Y26058D01*
X74638Y25989D01*
X74595Y25924D01*
X74576Y25862D01*
X74548Y25805D01*
X74537Y25735D01*
X74513Y25654D01*
X73358Y24499D01*
X66642Y24499D01*
X65707Y25435D01*
X65655Y25473D01*
X65610Y25519D01*
X65543Y25557D01*
X65481Y25604D01*
X65421Y25627D01*
X65365Y25658D01*
X65290Y25676D01*
X65217Y25703D01*
X65153Y25708D01*
X65091Y25723D01*
X65013Y25719D01*
X64936Y25725D01*
X64873Y25712D01*
X64809Y25709D01*
X64736Y25684D01*
X64660Y25668D01*
X64603Y25637D01*
X64542Y25616D01*
X64486Y25575D01*
X64411Y25535D01*
X64350Y25476D01*
X64293Y25435D01*
X63358Y24499D01*
X56642Y24499D01*
X55499Y25642D01*
X55499Y32358D01*
X56659Y33517D01*
X56703Y33530D01*
X56779Y33541D01*
X56838Y33567D01*
X56900Y33584D01*
X56966Y33625D01*
X57036Y33657D01*
X57085Y33699D01*
X57140Y33732D01*
X57192Y33790D01*
X57250Y33840D01*
X57286Y33894D01*
X57329Y33942D01*
X57362Y34011D01*
X57405Y34076D01*
X57424Y34138D01*
X57452Y34195D01*
X57463Y34265D01*
X57487Y34346D01*
X57488Y34431D01*
X57499Y34500D01*
X57499Y35550D01*
X57486Y35645D01*
X57481Y35741D01*
X57466Y35784D01*
X57459Y35829D01*
X57420Y35917D01*
X57388Y36008D01*
X57363Y36042D01*
X57343Y36086D01*
X57260Y36184D01*
X57207Y36257D01*
X42357Y51107D01*
X42343Y51137D01*
X42260Y51234D01*
X42207Y51307D01*
X26307Y67207D01*
X26230Y67264D01*
X26159Y67329D01*
X26118Y67349D01*
X26081Y67376D01*
X25991Y67410D01*
X25905Y67452D01*
X25863Y67458D01*
X25818Y67475D01*
X25690Y67485D01*
X25600Y67499D01*
X17278Y67499D01*
X17183Y67486D01*
X17087Y67481D01*
X17044Y67466D01*
X16999Y67459D01*
X16911Y67420D01*
X16821Y67388D01*
X16786Y67363D01*
X16742Y67343D01*
X16645Y67260D01*
X16572Y67207D01*
X14864Y65499D01*
X11136Y65499D01*
X8499Y68136D01*
X8499Y71864D01*
X9264Y72629D01*
X9303Y72681D01*
X9349Y72725D01*
X9387Y72793D01*
X9433Y72855D01*
X9456Y72915D01*
X9488Y72971D01*
X9506Y73046D01*
X9533Y73119D01*
X9538Y73183D01*
X9553Y73245D01*
X9549Y73323D01*
X9555Y73400D01*
X9542Y73463D01*
X9538Y73527D01*
X9513Y73600D01*
X9497Y73676D01*
X9467Y73733D01*
X9446Y73793D01*
X9405Y73850D01*
X9365Y73925D01*
X9306Y73986D01*
X9264Y74042D01*
X7489Y75818D01*
X6499Y78207D01*
X6499Y80793D01*
X7489Y83182D01*
X9264Y84958D01*
X9303Y85009D01*
X9349Y85054D01*
X9387Y85121D01*
X9433Y85183D01*
X9456Y85243D01*
X9488Y85299D01*
X9506Y85375D01*
X9533Y85447D01*
X9538Y85511D01*
X9553Y85574D01*
X9549Y85651D01*
X9555Y85728D01*
X9542Y85791D01*
X9538Y85855D01*
X9513Y85929D01*
X9497Y86004D01*
X9467Y86061D01*
X9446Y86122D01*
X9405Y86178D01*
X9365Y86253D01*
X9306Y86314D01*
X9264Y86371D01*
X8499Y87136D01*
X8499Y90864D01*
X9264Y91629D01*
X9303Y91681D01*
X9349Y91725D01*
X9387Y91793D01*
X9434Y91855D01*
X9456Y91915D01*
X9488Y91971D01*
X9506Y92046D01*
X9533Y92119D01*
X9538Y92183D01*
X9553Y92245D01*
X9549Y92323D01*
X9555Y92400D01*
X9542Y92463D01*
X9538Y92527D01*
X9513Y92600D01*
X9497Y92676D01*
X9467Y92733D01*
X9446Y92793D01*
X9405Y92850D01*
X9365Y92925D01*
X9306Y92986D01*
X9264Y93042D01*
X7489Y94818D01*
X6499Y97207D01*
X6499Y99793D01*
X7489Y102182D01*
X9264Y103958D01*
X9303Y104009D01*
X9349Y104054D01*
X9387Y104121D01*
X9434Y104183D01*
X9456Y104243D01*
X9488Y104299D01*
X9506Y104375D01*
X9533Y104447D01*
X9538Y104511D01*
X9553Y104574D01*
X9549Y104651D01*
X9555Y104728D01*
X9542Y104791D01*
X9538Y104855D01*
X9513Y104929D01*
X9497Y105004D01*
X9467Y105061D01*
X9446Y105122D01*
X9405Y105179D01*
X9365Y105253D01*
X9306Y105314D01*
X9264Y105371D01*
X8499Y106136D01*
X8499Y109864D01*
X11136Y112501D01*
X14864Y112501D01*
X16572Y110793D01*
X16648Y110736D01*
X16720Y110671D01*
X16761Y110651D01*
X16797Y110624D01*
X16887Y110590D01*
X16974Y110548D01*
X17016Y110542D01*
X17061Y110525D01*
X17189Y110515D01*
X17278Y110501D01*
X19036Y110501D01*
X23001Y106536D01*
X23001Y73500D01*
X23010Y73436D01*
X23009Y73372D01*
X23030Y73297D01*
X23041Y73221D01*
X23067Y73162D01*
X23084Y73100D01*
X23125Y73034D01*
X23157Y72964D01*
X23199Y72915D01*
X23232Y72860D01*
X23290Y72808D01*
X23340Y72750D01*
X23394Y72714D01*
X23442Y72671D01*
X23511Y72638D01*
X23576Y72595D01*
X23638Y72576D01*
X23695Y72548D01*
X23765Y72537D01*
X23846Y72513D01*
X23931Y72512D01*
X24000Y72501D01*
X28500Y72501D01*
X28563Y72510D01*
X28628Y72509D01*
X28703Y72530D01*
X28779Y72541D01*
X28838Y72567D01*
X28900Y72584D01*
X28966Y72625D01*
X29036Y72657D01*
X29085Y72698D01*
X29140Y72732D01*
X29192Y72790D01*
X29250Y72840D01*
X29286Y72894D01*
X29329Y72942D01*
X29363Y73011D01*
X29405Y73076D01*
X29424Y73138D01*
X29452Y73195D01*
X29463Y73265D01*
X29487Y73346D01*
X29488Y73431D01*
X29499Y73500D01*
X29499Y118400D01*
X31257Y120157D01*
X46843Y135743D01*
X48600Y137501D01*
X61186Y137501D01*
X61281Y137514D01*
X61377Y137519D01*
X61420Y137534D01*
X61465Y137541D01*
X61553Y137580D01*
X61644Y137612D01*
X61678Y137637D01*
X61722Y137657D01*
X61820Y137740D01*
X61893Y137793D01*
X63207Y139107D01*
X63264Y139184D01*
X63329Y139255D01*
X63349Y139296D01*
X63376Y139333D01*
X63410Y139423D01*
X63452Y139509D01*
X63458Y139551D01*
X63475Y139597D01*
X63485Y139724D01*
X63499Y139814D01*
X63499Y146021D01*
X65257Y147779D01*
X66721Y149243D01*
X68479Y151001D01*
X75521Y151001D01*
X77229Y149293D01*
X77305Y149236D01*
X77377Y149171D01*
X77418Y149151D01*
X77454Y149124D01*
X77544Y149090D01*
X77630Y149048D01*
X77673Y149042D01*
X77718Y149025D01*
X77846Y149015D01*
X77935Y149001D01*
X87557Y149001D01*
X89314Y147243D01*
X96293Y140264D01*
X96319Y140245D01*
X96340Y140220D01*
X96432Y140160D01*
X96519Y140095D01*
X96549Y140083D01*
X96576Y140066D01*
X96681Y140034D01*
X96783Y139995D01*
X96815Y139993D01*
X96846Y139983D01*
X96955Y139982D01*
X97064Y139973D01*
X97096Y139980D01*
X97128Y139980D01*
X97233Y140009D01*
X97340Y140031D01*
X97369Y140046D01*
X97400Y140055D01*
X97493Y140112D01*
X97589Y140163D01*
X97612Y140186D01*
X97640Y140203D01*
X97713Y140284D01*
X97791Y140360D01*
X97807Y140388D01*
X97829Y140412D01*
X97876Y140510D01*
X97930Y140606D01*
X97938Y140637D01*
X97952Y140666D01*
X97966Y140755D01*
X97995Y140880D01*
X97993Y140929D01*
X97999Y140971D01*
X97999Y142214D01*
X103286Y147501D01*
X104500Y147501D01*
X104564Y147510D01*
X104628Y147509D01*
X104703Y147530D01*
X104779Y147541D01*
X104838Y147567D01*
X104900Y147584D01*
X104966Y147625D01*
X105036Y147657D01*
X105085Y147699D01*
X105140Y147732D01*
X105192Y147790D01*
X105250Y147840D01*
X105286Y147894D01*
X105329Y147942D01*
X105362Y148011D01*
X105405Y148076D01*
X105424Y148138D01*
X105452Y148195D01*
X105463Y148265D01*
X105487Y148346D01*
X106435Y149293D01*
X106473Y149345D01*
X106519Y149390D01*
X106557Y149457D01*
X106604Y149519D01*
X106627Y149579D01*
X106658Y149635D01*
X106676Y149710D01*
X106703Y149783D01*
X106708Y149847D01*
X106723Y149909D01*
X106719Y149987D01*
X106725Y150064D01*
X106712Y150127D01*
X106709Y150191D01*
X106684Y150264D01*
X106668Y150340D01*
X106637Y150397D01*
X106616Y150458D01*
X106575Y150514D01*
X106535Y150589D01*
X106476Y150650D01*
X106435Y150707D01*
X105499Y151642D01*
X105499Y158358D01*
X106659Y159517D01*
X106703Y159530D01*
X106779Y159541D01*
X106838Y159567D01*
X106900Y159584D01*
X106966Y159625D01*
X107036Y159657D01*
X107085Y159699D01*
X107140Y159732D01*
X107192Y159790D01*
X107250Y159840D01*
X107286Y159894D01*
X107329Y159942D01*
X107362Y160011D01*
X107405Y160076D01*
X107424Y160138D01*
X107452Y160195D01*
X107463Y160265D01*
X107487Y160346D01*
X107488Y160431D01*
X107499Y160500D01*
X107499Y161500D01*
X107490Y161564D01*
X107491Y161628D01*
X107470Y161703D01*
X107459Y161779D01*
X107433Y161838D01*
X107416Y161900D01*
X107375Y161966D01*
X107343Y162036D01*
X107301Y162085D01*
X107268Y162140D01*
X107210Y162192D01*
X107160Y162250D01*
X107106Y162286D01*
X107058Y162329D01*
X106989Y162362D01*
X106924Y162405D01*
X106862Y162424D01*
X106805Y162452D01*
X106735Y162463D01*
X106654Y162487D01*
X106569Y162488D01*
X106500Y162499D01*
X79964Y162499D01*
X75499Y166964D01*
X75499Y168722D01*
X75486Y168817D01*
X75481Y168913D01*
X75466Y168956D01*
X75459Y169001D01*
X75420Y169089D01*
X75388Y169179D01*
X75363Y169214D01*
X75343Y169258D01*
X75260Y169355D01*
X75207Y169428D01*
X73499Y171136D01*
X73499Y174864D01*
X76136Y177501D01*
X79864Y177501D01*
X80629Y176736D01*
X80681Y176697D01*
X80725Y176651D01*
X80793Y176613D01*
X80855Y176566D01*
X80915Y176544D01*
X80971Y176512D01*
X81046Y176494D01*
X81119Y176467D01*
X81183Y176462D01*
X81245Y176447D01*
X81323Y176451D01*
X81400Y176445D01*
X81463Y176458D01*
X81527Y176462D01*
X81600Y176487D01*
X81676Y176503D01*
X81733Y176533D01*
X81793Y176554D01*
X81850Y176595D01*
X81925Y176635D01*
X81986Y176694D01*
X82042Y176736D01*
X83818Y178511D01*
X86207Y179501D01*
X88793Y179501D01*
X91182Y178511D01*
X92958Y176736D01*
X93009Y176697D01*
X93054Y176651D01*
X93121Y176613D01*
X93183Y176567D01*
X93243Y176544D01*
X93299Y176512D01*
X93375Y176494D01*
X93447Y176467D01*
X93511Y176462D01*
X93574Y176447D01*
X93651Y176451D01*
X93728Y176445D01*
X93791Y176458D01*
X93855Y176462D01*
X93929Y176487D01*
X94004Y176503D01*
X94061Y176533D01*
X94122Y176554D01*
X94178Y176595D01*
X94253Y176635D01*
X94314Y176694D01*
X94371Y176736D01*
X95136Y177501D01*
X98864Y177501D01*
X99629Y176736D01*
X99681Y176697D01*
X99725Y176651D01*
X99793Y176613D01*
X99855Y176566D01*
X99915Y176544D01*
X99971Y176512D01*
X100046Y176494D01*
X100119Y176467D01*
X100183Y176462D01*
X100245Y176447D01*
X100323Y176451D01*
X100400Y176445D01*
X100463Y176458D01*
X100527Y176462D01*
X100600Y176487D01*
X100676Y176503D01*
X100733Y176533D01*
X100793Y176554D01*
X100850Y176595D01*
X100925Y176635D01*
X100986Y176694D01*
X101042Y176736D01*
X102818Y178511D01*
X105207Y179501D01*
X107793Y179501D01*
X110182Y178511D01*
X111958Y176736D01*
X112009Y176697D01*
X112054Y176651D01*
X112121Y176613D01*
X112183Y176567D01*
X112243Y176544D01*
X112299Y176512D01*
X112375Y176494D01*
X112447Y176467D01*
X112511Y176462D01*
X112574Y176447D01*
X112651Y176451D01*
X112728Y176445D01*
X112791Y176458D01*
X112855Y176462D01*
X112929Y176487D01*
X113004Y176503D01*
X113061Y176533D01*
X113122Y176554D01*
X113178Y176595D01*
X113253Y176635D01*
X113314Y176694D01*
X113371Y176736D01*
X114136Y177501D01*
X117864Y177501D01*
X120501Y174864D01*
X120501Y171136D01*
X118793Y169428D01*
X118736Y169352D01*
X118671Y169280D01*
X118651Y169239D01*
X118624Y169203D01*
X118590Y169113D01*
X118548Y169026D01*
X118542Y168984D01*
X118525Y168939D01*
X118515Y168811D01*
X118501Y168722D01*
X118501Y167464D01*
X113536Y162499D01*
X113500Y162499D01*
X113436Y162490D01*
X113372Y162491D01*
X113297Y162470D01*
X113221Y162459D01*
X113162Y162433D01*
X113100Y162416D01*
X113034Y162375D01*
X112964Y162343D01*
X112915Y162301D01*
X112860Y162268D01*
X112808Y162210D01*
X112750Y162160D01*
X112714Y162106D01*
X112671Y162058D01*
X112638Y161989D01*
X112595Y161924D01*
X112576Y161862D01*
X112548Y161805D01*
X112537Y161735D01*
X112513Y161654D01*
X112512Y161569D01*
X112501Y161500D01*
X112501Y160500D01*
X112510Y160436D01*
X112509Y160372D01*
X112530Y160297D01*
X112541Y160221D01*
X112567Y160162D01*
X112584Y160100D01*
X112625Y160034D01*
X112657Y159964D01*
X112699Y159915D01*
X112732Y159860D01*
X112790Y159808D01*
X112840Y159750D01*
X112894Y159714D01*
X112942Y159671D01*
X113011Y159638D01*
X113076Y159595D01*
X113138Y159576D01*
X113195Y159548D01*
X113265Y159537D01*
X113346Y159513D01*
X114501Y158358D01*
X114501Y151642D01*
X113565Y150707D01*
X113527Y150655D01*
X113481Y150610D01*
X113443Y150543D01*
X113396Y150481D01*
X113373Y150421D01*
X113342Y150365D01*
X113324Y150290D01*
X113297Y150217D01*
X113292Y150153D01*
X113277Y150090D01*
X113281Y150013D01*
X113275Y149936D01*
X113288Y149873D01*
X113291Y149809D01*
X113316Y149736D01*
X113332Y149660D01*
X113363Y149603D01*
X113384Y149542D01*
X113425Y149486D01*
X113465Y149411D01*
X113524Y149350D01*
X113565Y149293D01*
X114517Y148341D01*
X114530Y148297D01*
X114541Y148221D01*
X114567Y148162D01*
X114584Y148100D01*
X114625Y148034D01*
X114657Y147964D01*
X114699Y147915D01*
X114732Y147860D01*
X114790Y147808D01*
X114840Y147750D01*
X114894Y147714D01*
X114942Y147671D01*
X115011Y147638D01*
X115076Y147595D01*
X115138Y147576D01*
X115195Y147548D01*
X115265Y147537D01*
X115346Y147513D01*
X115431Y147512D01*
X115500Y147501D01*
X117500Y147501D01*
X117564Y147510D01*
X117628Y147509D01*
X117703Y147530D01*
X117779Y147541D01*
X117838Y147567D01*
X117900Y147584D01*
X117966Y147625D01*
X118036Y147657D01*
X118085Y147699D01*
X118140Y147732D01*
X118192Y147790D01*
X118250Y147840D01*
X118286Y147894D01*
X118329Y147942D01*
X118362Y148011D01*
X118405Y148076D01*
X118424Y148138D01*
X118452Y148195D01*
X118463Y148265D01*
X118487Y148346D01*
X119642Y149501D01*
X126358Y149501D01*
X126793Y149065D01*
X126819Y149046D01*
X126840Y149021D01*
X126932Y148962D01*
X127019Y148896D01*
X127049Y148885D01*
X127076Y148867D01*
X127181Y148835D01*
X127283Y148796D01*
X127315Y148794D01*
X127346Y148785D01*
X127455Y148783D01*
X127564Y148775D01*
X127596Y148781D01*
X127628Y148781D01*
X127733Y148810D01*
X127840Y148832D01*
X127869Y148847D01*
X127900Y148856D01*
X127993Y148913D01*
X128089Y148965D01*
X128112Y148987D01*
X128140Y149004D01*
X128213Y149085D01*
X128291Y149161D01*
X128307Y149190D01*
X128329Y149213D01*
X128376Y149312D01*
X128430Y149407D01*
X128438Y149438D01*
X128452Y149467D01*
X128466Y149557D01*
X128495Y149681D01*
X128493Y149730D01*
X128499Y149772D01*
X128499Y149864D01*
X131136Y152501D01*
X134864Y152501D01*
X136572Y150793D01*
X136648Y150736D01*
X136720Y150671D01*
X136761Y150651D01*
X136797Y150624D01*
X136887Y150590D01*
X136974Y150548D01*
X137016Y150542D01*
X137061Y150525D01*
X137189Y150515D01*
X137278Y150501D01*
X138036Y150501D01*
X138874Y149663D01*
X138881Y149657D01*
X138887Y149650D01*
X138994Y149573D01*
X139099Y149494D01*
X139108Y149490D01*
X139116Y149485D01*
X139240Y149441D01*
X139363Y149394D01*
X139373Y149393D01*
X139381Y149390D01*
X139513Y149383D01*
X139644Y149372D01*
X139653Y149374D01*
X139663Y149374D01*
X139738Y149392D01*
X139920Y149430D01*
X139942Y149441D01*
X139963Y149446D01*
X142508Y150501D01*
X145492Y150501D01*
X148249Y149359D01*
X148293Y149314D01*
X148319Y149295D01*
X148340Y149270D01*
X148432Y149210D01*
X148519Y149145D01*
X148549Y149134D01*
X148576Y149116D01*
X148681Y149084D01*
X148783Y149045D01*
X148815Y149043D01*
X148846Y149033D01*
X148955Y149032D01*
X149064Y149024D01*
X149096Y149030D01*
X149128Y149030D01*
X149233Y149059D01*
X149340Y149081D01*
X149369Y149096D01*
X149400Y149105D01*
X149493Y149162D01*
X149589Y149214D01*
X149612Y149236D01*
X149640Y149253D01*
X149713Y149334D01*
X149791Y149410D01*
X149807Y149438D01*
X149829Y149462D01*
X149876Y149561D01*
X149930Y149656D01*
X149938Y149687D01*
X149952Y149716D01*
X149966Y149806D01*
X149995Y149930D01*
X149993Y149979D01*
X149999Y150021D01*
X149999Y158500D01*
X149990Y158564D01*
X149991Y158628D01*
X149970Y158703D01*
X149959Y158779D01*
X149933Y158838D01*
X149916Y158900D01*
X149875Y158966D01*
X149843Y159036D01*
X149801Y159085D01*
X149768Y159140D01*
X149710Y159192D01*
X149660Y159250D01*
X149606Y159286D01*
X149558Y159329D01*
X149489Y159362D01*
X149424Y159405D01*
X149362Y159424D01*
X149305Y159452D01*
X149235Y159463D01*
X149154Y159487D01*
X149069Y159488D01*
X149000Y159499D01*
X135757Y159499D01*
X133999Y161257D01*
X133999Y182000D01*
X133990Y182064D01*
X133991Y182128D01*
X133970Y182203D01*
X133959Y182279D01*
X133933Y182338D01*
X133916Y182400D01*
X133875Y182466D01*
X133843Y182536D01*
X133801Y182585D01*
X133768Y182640D01*
X133710Y182692D01*
X133660Y182750D01*
X133606Y182786D01*
X133558Y182829D01*
X133489Y182862D01*
X133424Y182905D01*
X133362Y182924D01*
X133305Y182952D01*
X133235Y182963D01*
X133154Y182987D01*
X133069Y182988D01*
X133000Y182999D01*
X54500Y182999D01*
X54436Y182990D01*
X54372Y182991D01*
X54297Y182970D01*
X54221Y182959D01*
X54162Y182933D01*
X54100Y182916D01*
X54034Y182875D01*
X53964Y182843D01*
X53915Y182801D01*
X53860Y182768D01*
X53808Y182710D01*
X53750Y182660D01*
X53714Y182606D01*
X53671Y182558D01*
X53638Y182489D01*
X53595Y182424D01*
X53576Y182362D01*
X53548Y182305D01*
X53537Y182235D01*
X53513Y182154D01*
X53512Y182069D01*
X53501Y182000D01*
X53501Y152757D01*
X51743Y150999D01*
X42157Y150999D01*
X42062Y150986D01*
X41966Y150981D01*
X41923Y150966D01*
X41878Y150959D01*
X41790Y150920D01*
X41699Y150888D01*
X41665Y150863D01*
X41621Y150843D01*
X41523Y150760D01*
X41450Y150707D01*
X26793Y136050D01*
X26736Y135973D01*
X26671Y135902D01*
X26651Y135861D01*
X26624Y135824D01*
X26590Y135734D01*
X26548Y135648D01*
X26542Y135606D01*
X26525Y135560D01*
X26515Y135433D01*
X26501Y135343D01*
X26501Y127757D01*
X24743Y125999D01*
X4000Y125999D01*
X3936Y125990D01*
X3872Y125991D01*
X3797Y125970D01*
X3721Y125959D01*
X3662Y125933D01*
X3600Y125916D01*
X3534Y125875D01*
X3464Y125843D01*
X3415Y125801D01*
X3360Y125768D01*
X3308Y125710D01*
X3250Y125660D01*
X3214Y125606D01*
X3171Y125558D01*
X3138Y125489D01*
X3095Y125424D01*
X3076Y125362D01*
X3048Y125305D01*
X3037Y125235D01*
X3013Y125154D01*
X3012Y125069D01*
X3001Y125000D01*
X3001Y46500D01*
X3010Y46436D01*
X3009Y46372D01*
X3030Y46297D01*
X3041Y46221D01*
X3067Y46162D01*
X3084Y46100D01*
X3125Y46034D01*
X3157Y45964D01*
X3199Y45915D01*
X3232Y45860D01*
X3290Y45808D01*
X3340Y45750D01*
X3394Y45714D01*
X3442Y45671D01*
X3511Y45638D01*
X3576Y45595D01*
X3638Y45576D01*
X3695Y45548D01*
X3765Y45537D01*
X3846Y45513D01*
X3931Y45512D01*
X4000Y45501D01*
X33243Y45501D01*
X35001Y43743D01*
X35001Y34157D01*
X35014Y34062D01*
X35019Y33966D01*
X35034Y33923D01*
X35041Y33878D01*
X35080Y33790D01*
X35112Y33699D01*
X35137Y33665D01*
X35157Y33621D01*
X35240Y33523D01*
X35293Y33450D01*
X49950Y18793D01*
X50027Y18736D01*
X50098Y18671D01*
X50139Y18651D01*
X50176Y18624D01*
X50266Y18590D01*
X50352Y18548D01*
X50394Y18542D01*
X50440Y18525D01*
X50567Y18515D01*
X50657Y18501D01*
X58243Y18501D01*
X60001Y16743D01*
X60001Y4000D01*
X60010Y3936D01*
X60009Y3872D01*
X60030Y3797D01*
X60041Y3721D01*
X60067Y3662D01*
X60084Y3600D01*
X60125Y3534D01*
X60157Y3464D01*
X60199Y3415D01*
X60232Y3360D01*
X60290Y3308D01*
X60340Y3250D01*
X60394Y3214D01*
X60442Y3171D01*
X60511Y3138D01*
X60576Y3095D01*
X60638Y3076D01*
X60695Y3048D01*
X60765Y3037D01*
X60846Y3013D01*
X60931Y3012D01*
X61000Y3001D01*
X139500Y3001D01*
X139564Y3010D01*
G37*
G36*
X87505Y124499D02*
X87505Y124499D01*
X87505Y124500D01*
X87505Y131500D01*
X87501Y131505D01*
X87500Y131505D01*
X84500Y131505D01*
X84495Y131501D01*
X84495Y131500D01*
X84495Y126000D01*
X84497Y125998D01*
X84496Y125996D01*
X85996Y124496D01*
X85999Y124496D01*
X86000Y124495D01*
X87500Y124495D01*
X87505Y124499D01*
G37*
G36*
X114505Y101499D02*
X114505Y101499D01*
X114505Y101500D01*
X114505Y104500D01*
X114501Y104505D01*
X114500Y104505D01*
X107500Y104505D01*
X107495Y104501D01*
X107495Y104500D01*
X107495Y103000D01*
X107497Y102998D01*
X107496Y102996D01*
X108996Y101496D01*
X108999Y101496D01*
X109000Y101495D01*
X114500Y101495D01*
X114505Y101499D01*
G37*
G36*
X87505Y94499D02*
X87505Y94499D01*
X87505Y94500D01*
X87505Y101500D01*
X87501Y101505D01*
X87500Y101505D01*
X86000Y101505D01*
X85998Y101503D01*
X85996Y101504D01*
X84496Y100004D01*
X84496Y100002D01*
X84495Y100001D01*
X84496Y100001D01*
X84495Y100000D01*
X84495Y94500D01*
X84499Y94495D01*
X84500Y94495D01*
X87500Y94495D01*
X87505Y94499D01*
G37*
G36*
X114505Y121499D02*
X114505Y121499D01*
X114505Y121500D01*
X114505Y124500D01*
X114501Y124505D01*
X114500Y124505D01*
X109000Y124505D01*
X108998Y124503D01*
X108996Y124504D01*
X107496Y123004D01*
X107496Y123002D01*
X107496Y123001D01*
X107495Y123000D01*
X107495Y121500D01*
X107499Y121495D01*
X107500Y121495D01*
X114500Y121495D01*
X114505Y121499D01*
G37*
G36*
X106002Y124497D02*
X106002Y124497D01*
X106004Y124496D01*
X107504Y125996D01*
X107504Y125999D01*
X107505Y126000D01*
X107505Y131500D01*
X107501Y131505D01*
X107500Y131505D01*
X104500Y131505D01*
X104495Y131501D01*
X104495Y131500D01*
X104495Y124500D01*
X104499Y124495D01*
X104500Y124495D01*
X106000Y124495D01*
X106002Y124497D01*
G37*
G36*
X83002Y101497D02*
X83002Y101497D01*
X83004Y101496D01*
X84504Y102996D01*
X84504Y102999D01*
X84505Y103000D01*
X84505Y104500D01*
X84501Y104505D01*
X84500Y104505D01*
X77500Y104505D01*
X77495Y104501D01*
X77495Y104500D01*
X77495Y101500D01*
X77499Y101495D01*
X77500Y101495D01*
X83000Y101495D01*
X83002Y101497D01*
G37*
G36*
X84505Y121499D02*
X84505Y121499D01*
X84505Y121500D01*
X84505Y123000D01*
X84503Y123002D01*
X84504Y123004D01*
X83004Y124504D01*
X83001Y124504D01*
X83000Y124505D01*
X77500Y124505D01*
X77495Y124501D01*
X77495Y124500D01*
X77495Y121500D01*
X77499Y121495D01*
X77500Y121495D01*
X84500Y121495D01*
X84505Y121499D01*
G37*
G36*
X107505Y94499D02*
X107505Y94499D01*
X107505Y94500D01*
X107505Y100000D01*
X107503Y100002D01*
X107504Y100004D01*
X106004Y101504D01*
X106001Y101504D01*
X106000Y101505D01*
X104500Y101505D01*
X104495Y101501D01*
X104495Y101500D01*
X104495Y94500D01*
X104499Y94495D01*
X104500Y94495D01*
X107500Y94495D01*
X107505Y94499D01*
G37*
D10*
X94550Y31550D02*
X94550Y26450D01*
X89450Y26450D01*
X89450Y31550D01*
X94550Y31550D01*
X94550Y27305D02*
X89450Y27305D01*
X89450Y28160D02*
X94550Y28160D01*
X94550Y29015D02*
X89450Y29015D01*
X89450Y29870D02*
X94550Y29870D01*
X94550Y30725D02*
X89450Y30725D01*
X79450Y31550D02*
X79450Y26450D01*
X79450Y31550D02*
X84550Y31550D01*
X84550Y26450D01*
X79450Y26450D01*
X79450Y27305D02*
X84550Y27305D01*
X84550Y28160D02*
X79450Y28160D01*
X79450Y29015D02*
X84550Y29015D01*
X84550Y29870D02*
X79450Y29870D01*
X79450Y30725D02*
X84550Y30725D01*
X72550Y31550D02*
X72550Y26450D01*
X67450Y26450D01*
X67450Y31550D01*
X72550Y31550D01*
X72550Y27305D02*
X67450Y27305D01*
X67450Y28160D02*
X72550Y28160D01*
X72550Y29015D02*
X67450Y29015D01*
X67450Y29870D02*
X72550Y29870D01*
X72550Y30725D02*
X67450Y30725D01*
X57450Y31550D02*
X57450Y26450D01*
X57450Y31550D02*
X62550Y31550D01*
X62550Y26450D01*
X57450Y26450D01*
X57450Y27305D02*
X62550Y27305D01*
X62550Y28160D02*
X57450Y28160D01*
X57450Y29015D02*
X62550Y29015D01*
X62550Y29870D02*
X57450Y29870D01*
X57450Y30725D02*
X62550Y30725D01*
X120450Y157550D02*
X125550Y157550D01*
X125550Y152450D01*
X120450Y152450D01*
X120450Y157550D01*
X120450Y153305D02*
X125550Y153305D01*
X125550Y154160D02*
X120450Y154160D01*
X120450Y155015D02*
X125550Y155015D01*
X125550Y155870D02*
X120450Y155870D01*
X120450Y156725D02*
X125550Y156725D01*
X125550Y142450D02*
X120450Y142450D01*
X120450Y147550D01*
X125550Y147550D01*
X125550Y142450D01*
X125550Y143305D02*
X120450Y143305D01*
X120450Y144160D02*
X125550Y144160D01*
X125550Y145015D02*
X120450Y145015D01*
X120450Y145870D02*
X125550Y145870D01*
X125550Y146725D02*
X120450Y146725D01*
X112550Y142450D02*
X107450Y142450D01*
X107450Y147550D01*
X112550Y147550D01*
X112550Y142450D01*
X112550Y143305D02*
X107450Y143305D01*
X107450Y144160D02*
X112550Y144160D01*
X112550Y145015D02*
X107450Y145015D01*
X107450Y145870D02*
X112550Y145870D01*
X112550Y146725D02*
X107450Y146725D01*
X107450Y157550D02*
X112550Y157550D01*
X112550Y152450D01*
X107450Y152450D01*
X107450Y157550D01*
X107450Y153305D02*
X112550Y153305D01*
X112550Y154160D02*
X107450Y154160D01*
X107450Y155015D02*
X112550Y155015D01*
X112550Y155870D02*
X107450Y155870D01*
X107450Y156725D02*
X112550Y156725D01*
D11*
X81000Y103000D03*
D12*
X77725Y106725D02*
X86275Y106725D01*
X77725Y106725D02*
X77725Y109275D01*
X86275Y109275D01*
X86275Y106725D01*
X86275Y107152D02*
X77725Y107152D01*
X77725Y107579D02*
X86275Y107579D01*
X86275Y108006D02*
X77725Y108006D01*
X77725Y108433D02*
X86275Y108433D01*
X86275Y108860D02*
X77725Y108860D01*
X77725Y111725D02*
X86275Y111725D01*
X77725Y111725D02*
X77725Y114275D01*
X86275Y114275D01*
X86275Y111725D01*
X86275Y112152D02*
X77725Y112152D01*
X77725Y112579D02*
X86275Y112579D01*
X86275Y113006D02*
X77725Y113006D01*
X77725Y113433D02*
X86275Y113433D01*
X86275Y113860D02*
X77725Y113860D01*
X77725Y116725D02*
X86275Y116725D01*
X77725Y116725D02*
X77725Y119275D01*
X86275Y119275D01*
X86275Y116725D01*
X86275Y117152D02*
X77725Y117152D01*
X77725Y117579D02*
X86275Y117579D01*
X86275Y118006D02*
X77725Y118006D01*
X77725Y118433D02*
X86275Y118433D01*
X86275Y118860D02*
X77725Y118860D01*
D11*
X81000Y123000D03*
X86000Y128000D03*
D12*
X89725Y131275D02*
X89725Y122725D01*
X89725Y131275D02*
X92275Y131275D01*
X92275Y122725D01*
X89725Y122725D01*
X89725Y123152D02*
X92275Y123152D01*
X92275Y123579D02*
X89725Y123579D01*
X89725Y124006D02*
X92275Y124006D01*
X92275Y124433D02*
X89725Y124433D01*
X89725Y124860D02*
X92275Y124860D01*
X92275Y125287D02*
X89725Y125287D01*
X89725Y125714D02*
X92275Y125714D01*
X92275Y126141D02*
X89725Y126141D01*
X89725Y126568D02*
X92275Y126568D01*
X92275Y126995D02*
X89725Y126995D01*
X89725Y127422D02*
X92275Y127422D01*
X92275Y127849D02*
X89725Y127849D01*
X89725Y128276D02*
X92275Y128276D01*
X92275Y128703D02*
X89725Y128703D01*
X89725Y129130D02*
X92275Y129130D01*
X92275Y129557D02*
X89725Y129557D01*
X89725Y129984D02*
X92275Y129984D01*
X92275Y130411D02*
X89725Y130411D01*
X89725Y130838D02*
X92275Y130838D01*
X92275Y131265D02*
X89725Y131265D01*
X94725Y131275D02*
X94725Y122725D01*
X94725Y131275D02*
X97275Y131275D01*
X97275Y122725D01*
X94725Y122725D01*
X94725Y123152D02*
X97275Y123152D01*
X97275Y123579D02*
X94725Y123579D01*
X94725Y124006D02*
X97275Y124006D01*
X97275Y124433D02*
X94725Y124433D01*
X94725Y124860D02*
X97275Y124860D01*
X97275Y125287D02*
X94725Y125287D01*
X94725Y125714D02*
X97275Y125714D01*
X97275Y126141D02*
X94725Y126141D01*
X94725Y126568D02*
X97275Y126568D01*
X97275Y126995D02*
X94725Y126995D01*
X94725Y127422D02*
X97275Y127422D01*
X97275Y127849D02*
X94725Y127849D01*
X94725Y128276D02*
X97275Y128276D01*
X97275Y128703D02*
X94725Y128703D01*
X94725Y129130D02*
X97275Y129130D01*
X97275Y129557D02*
X94725Y129557D01*
X94725Y129984D02*
X97275Y129984D01*
X97275Y130411D02*
X94725Y130411D01*
X94725Y130838D02*
X97275Y130838D01*
X97275Y131265D02*
X94725Y131265D01*
X99725Y131275D02*
X99725Y122725D01*
X99725Y131275D02*
X102275Y131275D01*
X102275Y122725D01*
X99725Y122725D01*
X99725Y123152D02*
X102275Y123152D01*
X102275Y123579D02*
X99725Y123579D01*
X99725Y124006D02*
X102275Y124006D01*
X102275Y124433D02*
X99725Y124433D01*
X99725Y124860D02*
X102275Y124860D01*
X102275Y125287D02*
X99725Y125287D01*
X99725Y125714D02*
X102275Y125714D01*
X102275Y126141D02*
X99725Y126141D01*
X99725Y126568D02*
X102275Y126568D01*
X102275Y126995D02*
X99725Y126995D01*
X99725Y127422D02*
X102275Y127422D01*
X102275Y127849D02*
X99725Y127849D01*
X99725Y128276D02*
X102275Y128276D01*
X102275Y128703D02*
X99725Y128703D01*
X99725Y129130D02*
X102275Y129130D01*
X102275Y129557D02*
X99725Y129557D01*
X99725Y129984D02*
X102275Y129984D01*
X102275Y130411D02*
X99725Y130411D01*
X99725Y130838D02*
X102275Y130838D01*
X102275Y131265D02*
X99725Y131265D01*
D11*
X106000Y128000D03*
X111000Y123000D03*
D12*
X114275Y119275D02*
X105725Y119275D01*
X114275Y119275D02*
X114275Y116725D01*
X105725Y116725D01*
X105725Y119275D01*
X105725Y117152D02*
X114275Y117152D01*
X114275Y117579D02*
X105725Y117579D01*
X105725Y118006D02*
X114275Y118006D01*
X114275Y118433D02*
X105725Y118433D01*
X105725Y118860D02*
X114275Y118860D01*
X114275Y114275D02*
X105725Y114275D01*
X114275Y114275D02*
X114275Y111725D01*
X105725Y111725D01*
X105725Y114275D01*
X105725Y112152D02*
X114275Y112152D01*
X114275Y112579D02*
X105725Y112579D01*
X105725Y113006D02*
X114275Y113006D01*
X114275Y113433D02*
X105725Y113433D01*
X105725Y113860D02*
X114275Y113860D01*
X114275Y109275D02*
X105725Y109275D01*
X114275Y109275D02*
X114275Y106725D01*
X105725Y106725D01*
X105725Y109275D01*
X105725Y107152D02*
X114275Y107152D01*
X114275Y107579D02*
X105725Y107579D01*
X105725Y108006D02*
X114275Y108006D01*
X114275Y108433D02*
X105725Y108433D01*
X105725Y108860D02*
X114275Y108860D01*
D11*
X111000Y103000D03*
X106000Y98000D03*
D12*
X102275Y94725D02*
X102275Y103275D01*
X102275Y94725D02*
X99725Y94725D01*
X99725Y103275D01*
X102275Y103275D01*
X102275Y95152D02*
X99725Y95152D01*
X99725Y95579D02*
X102275Y95579D01*
X102275Y96006D02*
X99725Y96006D01*
X99725Y96433D02*
X102275Y96433D01*
X102275Y96860D02*
X99725Y96860D01*
X99725Y97287D02*
X102275Y97287D01*
X102275Y97714D02*
X99725Y97714D01*
X99725Y98141D02*
X102275Y98141D01*
X102275Y98568D02*
X99725Y98568D01*
X99725Y98995D02*
X102275Y98995D01*
X102275Y99422D02*
X99725Y99422D01*
X99725Y99849D02*
X102275Y99849D01*
X102275Y100276D02*
X99725Y100276D01*
X99725Y100703D02*
X102275Y100703D01*
X102275Y101130D02*
X99725Y101130D01*
X99725Y101557D02*
X102275Y101557D01*
X102275Y101984D02*
X99725Y101984D01*
X99725Y102411D02*
X102275Y102411D01*
X102275Y102838D02*
X99725Y102838D01*
X99725Y103265D02*
X102275Y103265D01*
X97275Y103275D02*
X97275Y94725D01*
X94725Y94725D01*
X94725Y103275D01*
X97275Y103275D01*
X97275Y95152D02*
X94725Y95152D01*
X94725Y95579D02*
X97275Y95579D01*
X97275Y96006D02*
X94725Y96006D01*
X94725Y96433D02*
X97275Y96433D01*
X97275Y96860D02*
X94725Y96860D01*
X94725Y97287D02*
X97275Y97287D01*
X97275Y97714D02*
X94725Y97714D01*
X94725Y98141D02*
X97275Y98141D01*
X97275Y98568D02*
X94725Y98568D01*
X94725Y98995D02*
X97275Y98995D01*
X97275Y99422D02*
X94725Y99422D01*
X94725Y99849D02*
X97275Y99849D01*
X97275Y100276D02*
X94725Y100276D01*
X94725Y100703D02*
X97275Y100703D01*
X97275Y101130D02*
X94725Y101130D01*
X94725Y101557D02*
X97275Y101557D01*
X97275Y101984D02*
X94725Y101984D01*
X94725Y102411D02*
X97275Y102411D01*
X97275Y102838D02*
X94725Y102838D01*
X94725Y103265D02*
X97275Y103265D01*
X92275Y103275D02*
X92275Y94725D01*
X89725Y94725D01*
X89725Y103275D01*
X92275Y103275D01*
X92275Y95152D02*
X89725Y95152D01*
X89725Y95579D02*
X92275Y95579D01*
X92275Y96006D02*
X89725Y96006D01*
X89725Y96433D02*
X92275Y96433D01*
X92275Y96860D02*
X89725Y96860D01*
X89725Y97287D02*
X92275Y97287D01*
X92275Y97714D02*
X89725Y97714D01*
X89725Y98141D02*
X92275Y98141D01*
X92275Y98568D02*
X89725Y98568D01*
X89725Y98995D02*
X92275Y98995D01*
X92275Y99422D02*
X89725Y99422D01*
X89725Y99849D02*
X92275Y99849D01*
X92275Y100276D02*
X89725Y100276D01*
X89725Y100703D02*
X92275Y100703D01*
X92275Y101130D02*
X89725Y101130D01*
X89725Y101557D02*
X92275Y101557D01*
X92275Y101984D02*
X89725Y101984D01*
X89725Y102411D02*
X92275Y102411D01*
X92275Y102838D02*
X89725Y102838D01*
X89725Y103265D02*
X92275Y103265D01*
D11*
X86000Y98000D03*
D10*
X54550Y91450D02*
X49450Y91450D01*
X49450Y96550D01*
X54550Y96550D01*
X54550Y91450D01*
X54550Y92305D02*
X49450Y92305D01*
X49450Y93160D02*
X54550Y93160D01*
X54550Y94015D02*
X49450Y94015D01*
X49450Y94870D02*
X54550Y94870D01*
X54550Y95725D02*
X49450Y95725D01*
X49450Y106550D02*
X54550Y106550D01*
X54550Y101450D01*
X49450Y101450D01*
X49450Y106550D01*
X49450Y102305D02*
X54550Y102305D01*
X54550Y103160D02*
X49450Y103160D01*
X49450Y104015D02*
X54550Y104015D01*
X54550Y104870D02*
X49450Y104870D01*
X49450Y105725D02*
X54550Y105725D01*
D13*
X144000Y54000D03*
X144000Y72000D03*
X144000Y143000D03*
D10*
X54550Y113450D02*
X49450Y113450D01*
X49450Y118550D01*
X54550Y118550D01*
X54550Y113450D01*
X54550Y114305D02*
X49450Y114305D01*
X49450Y115160D02*
X54550Y115160D01*
X54550Y116015D02*
X49450Y116015D01*
X49450Y116870D02*
X54550Y116870D01*
X54550Y117725D02*
X49450Y117725D01*
X49450Y128550D02*
X54550Y128550D01*
X54550Y123450D01*
X49450Y123450D01*
X49450Y128550D01*
X49450Y124305D02*
X54550Y124305D01*
X54550Y125160D02*
X49450Y125160D01*
X49450Y126015D02*
X54550Y126015D01*
X54550Y126870D02*
X49450Y126870D01*
X49450Y127725D02*
X54550Y127725D01*
X64550Y69550D02*
X64550Y64450D01*
X59450Y64450D01*
X59450Y69550D01*
X64550Y69550D01*
X64550Y65305D02*
X59450Y65305D01*
X59450Y66160D02*
X64550Y66160D01*
X64550Y67015D02*
X59450Y67015D01*
X59450Y67870D02*
X64550Y67870D01*
X64550Y68725D02*
X59450Y68725D01*
X49450Y69550D02*
X49450Y64450D01*
X49450Y69550D02*
X54550Y69550D01*
X54550Y64450D01*
X49450Y64450D01*
X49450Y65305D02*
X54550Y65305D01*
X54550Y66160D02*
X49450Y66160D01*
X49450Y67015D02*
X54550Y67015D01*
X54550Y67870D02*
X49450Y67870D01*
X49450Y68725D02*
X54550Y68725D01*
X49450Y76450D02*
X49450Y81550D01*
X54550Y81550D01*
X54550Y76450D01*
X49450Y76450D01*
X49450Y77305D02*
X54550Y77305D01*
X54550Y78160D02*
X49450Y78160D01*
X49450Y79015D02*
X54550Y79015D01*
X54550Y79870D02*
X49450Y79870D01*
X49450Y80725D02*
X54550Y80725D01*
X64550Y81550D02*
X64550Y76450D01*
X59450Y76450D01*
X59450Y81550D01*
X64550Y81550D01*
X64550Y77305D02*
X59450Y77305D01*
X59450Y78160D02*
X64550Y78160D01*
X64550Y79015D02*
X59450Y79015D01*
X59450Y79870D02*
X64550Y79870D01*
X64550Y80725D02*
X59450Y80725D01*
D13*
X144000Y36000D03*
X144000Y90000D03*
X144000Y125000D03*
X144000Y107000D03*
D14*
X124400Y12000D03*
X99000Y12000D03*
X73600Y12000D03*
D15*
X96000Y127000D02*
X95500Y127500D01*
X95500Y137521D01*
X86521Y146500D01*
X76485Y146500D02*
X74485Y148500D01*
X76485Y146500D02*
X86521Y146500D01*
X74485Y148500D02*
X69515Y148500D01*
X70000Y29000D02*
X82000Y29000D01*
X70000Y29000D02*
X70000Y34000D01*
X61000Y43000D01*
X59000Y43000D01*
X32000Y70000D01*
X32000Y117364D02*
X49636Y135000D01*
X32000Y117364D02*
X32000Y70000D01*
X66000Y144985D02*
X69515Y148500D01*
X66000Y144985D02*
X66000Y138364D01*
X62636Y135000D01*
X49636Y135000D01*
D16*
X13000Y70000D03*
X13000Y108000D03*
D15*
X60000Y37000D02*
X60000Y29000D01*
X60000Y37000D02*
X58000Y39000D01*
X45000Y52000D01*
X45000Y52050D01*
X27050Y70000D02*
X27000Y70000D01*
X20500Y70000D01*
X13000Y70000D01*
X27050Y70000D02*
X45000Y52050D01*
X20500Y70000D02*
X20500Y105500D01*
X18000Y108000D02*
X13000Y108000D01*
X18000Y108000D02*
X20500Y105500D01*
X116000Y168500D02*
X116000Y173000D01*
X116000Y168500D02*
X112500Y165000D01*
X78000Y168000D02*
X78000Y173000D01*
X81000Y165000D02*
X109500Y165000D01*
X112500Y165000D01*
D16*
X116000Y173000D03*
X78000Y173000D03*
D15*
X78000Y168000D02*
X81000Y165000D01*
X109500Y165000D02*
X110000Y164500D01*
X110000Y155000D01*
X100500Y127500D02*
X101000Y127000D01*
X100500Y127500D02*
X100500Y141178D01*
X104322Y145000D01*
X110000Y145000D01*
X123000Y145000D01*
D17*
X86000Y135000D02*
X86000Y128000D01*
D16*
X77000Y53000D03*
D17*
X110000Y23000D02*
X99000Y12000D01*
X110000Y38000D02*
X100000Y48000D01*
X82000Y48000D01*
X77000Y53000D01*
X110000Y38000D02*
X110000Y23000D01*
D16*
X61000Y127000D03*
D17*
X69000Y135000D02*
X86000Y135000D01*
X77000Y53000D02*
X72000Y48000D01*
X60364Y48000D01*
X52000Y56500D02*
X52000Y67000D01*
X52000Y56500D02*
X60364Y48136D01*
X60364Y48000D01*
X52000Y67000D02*
X41364Y67000D01*
X36500Y71864D01*
X36500Y115500D01*
X47000Y126000D01*
X52000Y126000D01*
X60000Y126000D01*
X61000Y127000D01*
X69000Y135000D01*
D16*
X41000Y35000D03*
X103000Y27000D03*
X137000Y14000D03*
X136500Y6500D03*
X6000Y50000D03*
X68000Y102000D03*
X129000Y170000D03*
X129000Y163000D03*
X144000Y156000D03*
X86000Y12000D03*
X64000Y18000D03*
X72000Y88000D03*
X102000Y151000D03*
X30000Y50000D03*
X21000Y50000D03*
X26000Y76000D03*
X59000Y177500D03*
X60000Y141000D03*
D17*
X58000Y104000D02*
X52000Y104000D01*
X58000Y104000D02*
X61000Y107000D01*
X61000Y117000D02*
X67000Y123000D01*
X81000Y123000D01*
X61000Y117000D02*
X61000Y107000D01*
D15*
X78000Y84000D02*
X87000Y75000D01*
X81000Y103000D02*
X75000Y103000D01*
X134000Y46000D02*
X144000Y36000D01*
X92000Y75000D02*
X87000Y75000D01*
X92000Y75000D02*
X103000Y64000D01*
X74000Y102000D02*
X75000Y103000D01*
X74000Y102000D02*
X74000Y98000D01*
X131000Y61000D02*
X134000Y58000D01*
X131000Y61000D02*
X119544Y61000D01*
X116544Y64000D02*
X103000Y64000D01*
X134000Y58000D02*
X134000Y46000D01*
X119544Y61000D02*
X116544Y64000D01*
X78000Y84000D02*
X78000Y94000D01*
X74000Y98000D01*
X91000Y127000D02*
X91000Y136364D01*
X84864Y142500D01*
D16*
X72000Y142500D03*
D15*
X84864Y142500D01*
D16*
X91000Y81500D03*
D15*
X91000Y99000D01*
D16*
X85000Y89000D03*
D15*
X86000Y90000D02*
X86000Y98000D01*
X86000Y90000D02*
X85000Y89000D01*
D16*
X115000Y79000D03*
D15*
X117000Y103000D02*
X111000Y103000D01*
X117000Y103000D02*
X119000Y101000D01*
D16*
X110000Y48000D03*
D15*
X115000Y21400D02*
X124400Y12000D01*
X115000Y79000D02*
X115000Y91000D01*
X119000Y95000D02*
X119000Y101000D01*
X119000Y95000D02*
X115000Y91000D01*
X115000Y41000D02*
X115000Y21400D01*
X115000Y41000D02*
X110000Y46000D01*
X110000Y48000D01*
D16*
X109000Y87000D03*
D15*
X109000Y90000D01*
X106000Y93000D01*
X106000Y98000D01*
D16*
X103000Y81000D03*
D15*
X101000Y92000D02*
X101000Y99000D01*
X101000Y92000D02*
X103000Y90000D01*
X103000Y81000D01*
X103000Y76000D01*
X107000Y72000D01*
X119858Y72000D01*
X122858Y69000D01*
X135657Y72000D02*
X144000Y72000D01*
X132657Y69000D02*
X122858Y69000D01*
X132657Y69000D02*
X135657Y72000D01*
D16*
X97000Y87000D03*
D15*
X96000Y88000D02*
X96000Y99000D01*
X96000Y88000D02*
X97000Y87000D01*
X97000Y76343D01*
X142000Y54000D02*
X144000Y54000D01*
X118201Y68000D02*
X105343Y68000D01*
X121201Y65000D02*
X133000Y65000D01*
X121201Y65000D02*
X118201Y68000D01*
X133000Y65000D02*
X142000Y56000D01*
X142000Y54000D01*
X105343Y68000D02*
X97000Y76343D01*
X110000Y108000D02*
X118000Y108000D01*
D16*
X121000Y85000D03*
D15*
X121000Y91000D02*
X123000Y93000D01*
X121000Y91000D02*
X121000Y85000D01*
X123000Y103000D02*
X118000Y108000D01*
X123000Y103000D02*
X123000Y93000D01*
X121000Y76515D02*
X124515Y73000D01*
X131000Y73000D01*
X121000Y76515D02*
X121000Y85000D01*
X131000Y73000D02*
X144000Y86000D01*
X144000Y90000D01*
D16*
X127000Y79000D03*
D15*
X119000Y113000D02*
X110000Y113000D01*
X119000Y113000D02*
X125250Y106750D01*
X127000Y105000D01*
X127000Y79000D01*
X125250Y106750D02*
X129000Y110500D01*
X129015Y110500D01*
X143515Y125000D02*
X144000Y125000D01*
X143515Y125000D02*
X129015Y110500D01*
X106000Y128000D02*
X106000Y135000D01*
X109000Y138000D01*
D16*
X133000Y85000D03*
D15*
X133000Y106000D01*
D16*
X133000Y106000D03*
X129000Y128000D03*
D15*
X134000Y107000D02*
X133000Y106000D01*
X134000Y107000D02*
X144000Y107000D01*
X127000Y138000D02*
X109000Y138000D01*
X127000Y138000D02*
X129000Y136000D01*
X129000Y128000D01*
D16*
X126000Y116000D03*
D15*
X122000Y116000D01*
X120000Y118000D01*
X110000Y118000D01*
X111000Y123000D02*
X117000Y123000D01*
D16*
X133000Y148000D03*
D15*
X137000Y148000D01*
X144000Y143000D02*
X144000Y142000D01*
X143000Y142000D02*
X137000Y148000D01*
X143000Y142000D02*
X144000Y142000D01*
X118000Y122000D02*
X117000Y123000D01*
X118000Y122000D02*
X134000Y122000D01*
X135000Y123000D01*
X143000Y140728D02*
X143000Y142000D01*
X143000Y140728D02*
X135000Y132728D01*
X135000Y123000D01*
D16*
X64000Y56000D03*
D17*
X62000Y58000D01*
X62000Y67000D01*
X62000Y79000D01*
D16*
X97000Y173000D03*
X13000Y89000D03*
M02*
