G04 EAGLE Gerber RS-274X export*
G75*
%MOMM*%
%FSLAX34Y34*%
%LPD*%
%IN*%
%IPPOS*%
%AMOC8*
5,1,8,0,0,1.08239X$1,22.5*%
G01*
%ADD10C,0.254000*%


D10*
X0Y42500D02*
X32000Y42500D01*
X32000Y32500D01*
X49000Y15500D01*
X57000Y15500D01*
X57000Y0D01*
X143500Y0D01*
X143500Y24000D01*
X153000Y24000D01*
X153000Y162500D01*
X137000Y162500D01*
X137000Y186000D01*
X50500Y186000D01*
X50500Y154000D01*
X40500Y154000D01*
X23500Y137000D01*
X23500Y129000D01*
X0Y129000D01*
X0Y42500D01*
X9500Y98729D02*
X9560Y99184D01*
X9679Y99627D01*
X9854Y100051D01*
X10084Y100449D01*
X10363Y100813D01*
X10687Y101137D01*
X11051Y101416D01*
X11449Y101646D01*
X11873Y101821D01*
X12316Y101940D01*
X12771Y102000D01*
X13229Y102000D01*
X13684Y101940D01*
X14127Y101821D01*
X14551Y101646D01*
X14949Y101416D01*
X15313Y101137D01*
X15637Y100813D01*
X15916Y100449D01*
X16146Y100051D01*
X16321Y99627D01*
X16440Y99184D01*
X16500Y98729D01*
X16500Y98271D01*
X16440Y97816D01*
X16321Y97373D01*
X16146Y96949D01*
X15916Y96551D01*
X15637Y96187D01*
X15313Y95863D01*
X14949Y95584D01*
X14551Y95354D01*
X14127Y95179D01*
X13684Y95060D01*
X13229Y95000D01*
X12771Y95000D01*
X12316Y95060D01*
X11873Y95179D01*
X11449Y95354D01*
X11051Y95584D01*
X10687Y95863D01*
X10363Y96187D01*
X10084Y96551D01*
X9854Y96949D01*
X9679Y97373D01*
X9560Y97816D01*
X9500Y98271D01*
X9500Y98729D01*
X9500Y79729D02*
X9560Y80184D01*
X9679Y80627D01*
X9854Y81051D01*
X10084Y81449D01*
X10363Y81813D01*
X10687Y82137D01*
X11051Y82416D01*
X11449Y82646D01*
X11873Y82821D01*
X12316Y82940D01*
X12771Y83000D01*
X13229Y83000D01*
X13684Y82940D01*
X14127Y82821D01*
X14551Y82646D01*
X14949Y82416D01*
X15313Y82137D01*
X15637Y81813D01*
X15916Y81449D01*
X16146Y81051D01*
X16321Y80627D01*
X16440Y80184D01*
X16500Y79729D01*
X16500Y79271D01*
X16440Y78816D01*
X16321Y78373D01*
X16146Y77949D01*
X15916Y77551D01*
X15637Y77187D01*
X15313Y76863D01*
X14949Y76584D01*
X14551Y76354D01*
X14127Y76179D01*
X13684Y76060D01*
X13229Y76000D01*
X12771Y76000D01*
X12316Y76060D01*
X11873Y76179D01*
X11449Y76354D01*
X11051Y76584D01*
X10687Y76863D01*
X10363Y77187D01*
X10084Y77551D01*
X9854Y77949D01*
X9679Y78373D01*
X9560Y78816D01*
X9500Y79271D01*
X9500Y79729D01*
X106729Y176500D02*
X107184Y176440D01*
X107627Y176321D01*
X108051Y176146D01*
X108449Y175916D01*
X108813Y175637D01*
X109137Y175313D01*
X109416Y174949D01*
X109646Y174551D01*
X109821Y174127D01*
X109940Y173684D01*
X110000Y173229D01*
X110000Y172771D01*
X109940Y172316D01*
X109821Y171873D01*
X109646Y171449D01*
X109416Y171051D01*
X109137Y170687D01*
X108813Y170363D01*
X108449Y170084D01*
X108051Y169854D01*
X107627Y169679D01*
X107184Y169560D01*
X106729Y169500D01*
X106271Y169500D01*
X105816Y169560D01*
X105373Y169679D01*
X104949Y169854D01*
X104551Y170084D01*
X104187Y170363D01*
X103863Y170687D01*
X103584Y171051D01*
X103354Y171449D01*
X103179Y171873D01*
X103060Y172316D01*
X103000Y172771D01*
X103000Y173229D01*
X103060Y173684D01*
X103179Y174127D01*
X103354Y174551D01*
X103584Y174949D01*
X103863Y175313D01*
X104187Y175637D01*
X104551Y175916D01*
X104949Y176146D01*
X105373Y176321D01*
X105816Y176440D01*
X106271Y176500D01*
X106729Y176500D01*
X87729Y176500D02*
X88184Y176440D01*
X88627Y176321D01*
X89051Y176146D01*
X89449Y175916D01*
X89813Y175637D01*
X90137Y175313D01*
X90416Y174949D01*
X90646Y174551D01*
X90821Y174127D01*
X90940Y173684D01*
X91000Y173229D01*
X91000Y172771D01*
X90940Y172316D01*
X90821Y171873D01*
X90646Y171449D01*
X90416Y171051D01*
X90137Y170687D01*
X89813Y170363D01*
X89449Y170084D01*
X89051Y169854D01*
X88627Y169679D01*
X88184Y169560D01*
X87729Y169500D01*
X87271Y169500D01*
X86816Y169560D01*
X86373Y169679D01*
X85949Y169854D01*
X85551Y170084D01*
X85187Y170363D01*
X84863Y170687D01*
X84584Y171051D01*
X84354Y171449D01*
X84179Y171873D01*
X84060Y172316D01*
X84000Y172771D01*
X84000Y173229D01*
X84060Y173684D01*
X84179Y174127D01*
X84354Y174551D01*
X84584Y174949D01*
X84863Y175313D01*
X85187Y175637D01*
X85551Y175916D01*
X85949Y176146D01*
X86373Y176321D01*
X86816Y176440D01*
X87271Y176500D01*
X87729Y176500D01*
M02*
