G04 EAGLE Gerber RS-274X export*
G75*
%MOMM*%
%FSLAX34Y34*%
%LPD*%
%INSoldermask Bottom*%
%IPPOS*%
%AMOC8*
5,1,8,0,0,1.08239X$1,22.5*%
G01*
%ADD10C,0.800000*%
%ADD11C,0.189000*%
%ADD12C,0.400000*%
%ADD13C,0.144000*%
%ADD14C,1.300000*%
%ADD15C,1.200000*%

G36*
X84508Y121002D02*
X84508Y121002D01*
X84517Y121001D01*
X84605Y121022D01*
X84695Y121040D01*
X84702Y121045D01*
X84710Y121047D01*
X84783Y121101D01*
X84859Y121153D01*
X84863Y121160D01*
X84870Y121165D01*
X84917Y121243D01*
X84966Y121320D01*
X84967Y121329D01*
X84972Y121336D01*
X84999Y121500D01*
X84999Y123000D01*
X84998Y123007D01*
X84999Y123014D01*
X84998Y123019D01*
X84999Y123025D01*
X84977Y123109D01*
X84960Y123195D01*
X84954Y123203D01*
X84953Y123208D01*
X84951Y123210D01*
X84949Y123217D01*
X84853Y123353D01*
X83353Y124853D01*
X83345Y124858D01*
X83340Y124866D01*
X83337Y124867D01*
X83335Y124870D01*
X83260Y124915D01*
X83187Y124963D01*
X83175Y124965D01*
X83164Y124972D01*
X83000Y124999D01*
X77500Y124999D01*
X77492Y124998D01*
X77483Y124999D01*
X77395Y124978D01*
X77305Y124960D01*
X77298Y124955D01*
X77290Y124953D01*
X77217Y124899D01*
X77141Y124847D01*
X77137Y124840D01*
X77130Y124835D01*
X77083Y124757D01*
X77034Y124680D01*
X77033Y124671D01*
X77028Y124664D01*
X77001Y124500D01*
X77001Y121500D01*
X77002Y121492D01*
X77001Y121483D01*
X77022Y121395D01*
X77040Y121305D01*
X77045Y121298D01*
X77047Y121290D01*
X77101Y121217D01*
X77153Y121141D01*
X77160Y121137D01*
X77165Y121130D01*
X77243Y121083D01*
X77320Y121034D01*
X77329Y121033D01*
X77336Y121028D01*
X77500Y121001D01*
X84500Y121001D01*
X84508Y121002D01*
G37*
G36*
X107508Y94002D02*
X107508Y94002D01*
X107517Y94001D01*
X107605Y94022D01*
X107695Y94040D01*
X107702Y94045D01*
X107710Y94047D01*
X107783Y94101D01*
X107859Y94153D01*
X107863Y94160D01*
X107870Y94165D01*
X107917Y94243D01*
X107966Y94320D01*
X107967Y94329D01*
X107972Y94336D01*
X107999Y94500D01*
X107999Y100000D01*
X107998Y100005D01*
X107999Y100008D01*
X107997Y100016D01*
X107999Y100025D01*
X107977Y100109D01*
X107960Y100195D01*
X107953Y100205D01*
X107949Y100217D01*
X107853Y100353D01*
X106353Y101853D01*
X106348Y101856D01*
X106346Y101860D01*
X106341Y101863D01*
X106335Y101870D01*
X106260Y101915D01*
X106187Y101963D01*
X106175Y101965D01*
X106164Y101972D01*
X106000Y101999D01*
X104500Y101999D01*
X104492Y101998D01*
X104483Y101999D01*
X104395Y101978D01*
X104305Y101960D01*
X104298Y101955D01*
X104290Y101953D01*
X104217Y101899D01*
X104141Y101847D01*
X104137Y101840D01*
X104130Y101835D01*
X104083Y101757D01*
X104034Y101680D01*
X104033Y101671D01*
X104028Y101664D01*
X104001Y101500D01*
X104001Y94500D01*
X104002Y94492D01*
X104001Y94483D01*
X104022Y94395D01*
X104040Y94305D01*
X104045Y94298D01*
X104047Y94290D01*
X104101Y94217D01*
X104153Y94141D01*
X104160Y94137D01*
X104165Y94130D01*
X104243Y94083D01*
X104320Y94034D01*
X104329Y94033D01*
X104336Y94028D01*
X104500Y94001D01*
X107500Y94001D01*
X107508Y94002D01*
G37*
G36*
X83012Y101003D02*
X83012Y101003D01*
X83025Y101001D01*
X83109Y101023D01*
X83195Y101040D01*
X83205Y101048D01*
X83217Y101051D01*
X83353Y101147D01*
X84853Y102647D01*
X84855Y102649D01*
X84857Y102651D01*
X84862Y102659D01*
X84870Y102665D01*
X84915Y102740D01*
X84963Y102813D01*
X84965Y102825D01*
X84972Y102836D01*
X84999Y103000D01*
X84999Y104500D01*
X84998Y104506D01*
X84999Y104512D01*
X84999Y104514D01*
X84999Y104517D01*
X84978Y104605D01*
X84960Y104695D01*
X84955Y104702D01*
X84953Y104710D01*
X84899Y104783D01*
X84847Y104859D01*
X84840Y104863D01*
X84835Y104870D01*
X84757Y104917D01*
X84680Y104966D01*
X84671Y104967D01*
X84664Y104972D01*
X84500Y104999D01*
X77500Y104999D01*
X77492Y104998D01*
X77483Y104999D01*
X77395Y104978D01*
X77305Y104960D01*
X77298Y104955D01*
X77290Y104953D01*
X77217Y104899D01*
X77141Y104847D01*
X77137Y104840D01*
X77130Y104835D01*
X77083Y104757D01*
X77034Y104680D01*
X77033Y104671D01*
X77028Y104664D01*
X77001Y104500D01*
X77001Y101500D01*
X77002Y101492D01*
X77001Y101483D01*
X77022Y101395D01*
X77040Y101305D01*
X77045Y101298D01*
X77047Y101290D01*
X77101Y101217D01*
X77153Y101141D01*
X77160Y101137D01*
X77165Y101130D01*
X77243Y101083D01*
X77320Y101034D01*
X77329Y101033D01*
X77336Y101028D01*
X77500Y101001D01*
X83000Y101001D01*
X83012Y101003D01*
G37*
G36*
X106012Y124003D02*
X106012Y124003D01*
X106025Y124001D01*
X106109Y124023D01*
X106195Y124040D01*
X106205Y124048D01*
X106217Y124051D01*
X106353Y124147D01*
X107853Y125647D01*
X107855Y125649D01*
X107857Y125651D01*
X107862Y125659D01*
X107870Y125665D01*
X107915Y125740D01*
X107963Y125813D01*
X107965Y125825D01*
X107972Y125836D01*
X107999Y126000D01*
X107999Y131500D01*
X107999Y131504D01*
X107999Y131506D01*
X107998Y131510D01*
X107999Y131517D01*
X107978Y131605D01*
X107960Y131695D01*
X107955Y131702D01*
X107953Y131710D01*
X107899Y131783D01*
X107847Y131859D01*
X107840Y131863D01*
X107835Y131870D01*
X107757Y131917D01*
X107680Y131966D01*
X107671Y131967D01*
X107664Y131972D01*
X107500Y131999D01*
X104500Y131999D01*
X104492Y131998D01*
X104483Y131999D01*
X104395Y131978D01*
X104305Y131960D01*
X104298Y131955D01*
X104290Y131953D01*
X104217Y131899D01*
X104141Y131847D01*
X104137Y131840D01*
X104130Y131835D01*
X104083Y131757D01*
X104034Y131680D01*
X104033Y131671D01*
X104028Y131664D01*
X104001Y131500D01*
X104001Y124500D01*
X104002Y124492D01*
X104001Y124483D01*
X104022Y124395D01*
X104040Y124305D01*
X104045Y124298D01*
X104047Y124290D01*
X104101Y124217D01*
X104153Y124141D01*
X104160Y124137D01*
X104165Y124130D01*
X104243Y124083D01*
X104320Y124034D01*
X104329Y124033D01*
X104336Y124028D01*
X104500Y124001D01*
X106000Y124001D01*
X106012Y124003D01*
G37*
G36*
X114508Y121002D02*
X114508Y121002D01*
X114517Y121001D01*
X114605Y121022D01*
X114695Y121040D01*
X114702Y121045D01*
X114710Y121047D01*
X114783Y121101D01*
X114859Y121153D01*
X114863Y121160D01*
X114870Y121165D01*
X114917Y121243D01*
X114966Y121320D01*
X114967Y121329D01*
X114972Y121336D01*
X114999Y121500D01*
X114999Y124500D01*
X114998Y124506D01*
X114999Y124512D01*
X114999Y124514D01*
X114999Y124517D01*
X114978Y124605D01*
X114960Y124695D01*
X114955Y124702D01*
X114953Y124710D01*
X114899Y124783D01*
X114847Y124859D01*
X114840Y124863D01*
X114835Y124870D01*
X114757Y124917D01*
X114680Y124966D01*
X114671Y124967D01*
X114664Y124972D01*
X114500Y124999D01*
X109000Y124999D01*
X108988Y124997D01*
X108975Y124999D01*
X108891Y124977D01*
X108805Y124960D01*
X108795Y124953D01*
X108783Y124949D01*
X108647Y124853D01*
X107147Y123353D01*
X107142Y123345D01*
X107141Y123345D01*
X107139Y123342D01*
X107130Y123335D01*
X107086Y123260D01*
X107037Y123187D01*
X107036Y123180D01*
X107034Y123177D01*
X107033Y123172D01*
X107028Y123164D01*
X107001Y123000D01*
X107001Y121500D01*
X107002Y121492D01*
X107001Y121483D01*
X107022Y121395D01*
X107040Y121305D01*
X107045Y121298D01*
X107047Y121290D01*
X107101Y121217D01*
X107153Y121141D01*
X107160Y121137D01*
X107165Y121130D01*
X107243Y121083D01*
X107320Y121034D01*
X107329Y121033D01*
X107336Y121028D01*
X107500Y121001D01*
X114500Y121001D01*
X114508Y121002D01*
G37*
G36*
X114508Y101002D02*
X114508Y101002D01*
X114517Y101001D01*
X114605Y101022D01*
X114695Y101040D01*
X114702Y101045D01*
X114710Y101047D01*
X114783Y101101D01*
X114859Y101153D01*
X114863Y101160D01*
X114870Y101165D01*
X114917Y101243D01*
X114966Y101320D01*
X114967Y101329D01*
X114972Y101336D01*
X114999Y101500D01*
X114999Y104500D01*
X114998Y104506D01*
X114999Y104512D01*
X114999Y104514D01*
X114999Y104517D01*
X114978Y104605D01*
X114960Y104695D01*
X114955Y104702D01*
X114953Y104710D01*
X114899Y104783D01*
X114847Y104859D01*
X114840Y104863D01*
X114835Y104870D01*
X114757Y104917D01*
X114680Y104966D01*
X114671Y104967D01*
X114664Y104972D01*
X114500Y104999D01*
X107500Y104999D01*
X107492Y104998D01*
X107483Y104999D01*
X107395Y104978D01*
X107305Y104960D01*
X107298Y104955D01*
X107290Y104953D01*
X107217Y104899D01*
X107141Y104847D01*
X107137Y104840D01*
X107130Y104835D01*
X107083Y104757D01*
X107034Y104680D01*
X107033Y104671D01*
X107028Y104664D01*
X107001Y104500D01*
X107001Y103000D01*
X107003Y102988D01*
X107001Y102975D01*
X107023Y102891D01*
X107040Y102805D01*
X107048Y102795D01*
X107051Y102783D01*
X107147Y102647D01*
X108647Y101147D01*
X108658Y101140D01*
X108665Y101130D01*
X108740Y101086D01*
X108813Y101037D01*
X108825Y101035D01*
X108836Y101028D01*
X109000Y101001D01*
X114500Y101001D01*
X114508Y101002D01*
G37*
G36*
X87508Y124002D02*
X87508Y124002D01*
X87517Y124001D01*
X87605Y124022D01*
X87695Y124040D01*
X87702Y124045D01*
X87710Y124047D01*
X87783Y124101D01*
X87859Y124153D01*
X87863Y124160D01*
X87870Y124165D01*
X87917Y124243D01*
X87966Y124320D01*
X87967Y124329D01*
X87972Y124336D01*
X87999Y124500D01*
X87999Y131500D01*
X87999Y131504D01*
X87999Y131506D01*
X87998Y131510D01*
X87999Y131517D01*
X87978Y131605D01*
X87960Y131695D01*
X87955Y131702D01*
X87953Y131710D01*
X87899Y131783D01*
X87847Y131859D01*
X87840Y131863D01*
X87835Y131870D01*
X87757Y131917D01*
X87680Y131966D01*
X87671Y131967D01*
X87664Y131972D01*
X87500Y131999D01*
X84500Y131999D01*
X84492Y131998D01*
X84483Y131999D01*
X84395Y131978D01*
X84305Y131960D01*
X84298Y131955D01*
X84290Y131953D01*
X84217Y131899D01*
X84141Y131847D01*
X84137Y131840D01*
X84130Y131835D01*
X84083Y131757D01*
X84034Y131680D01*
X84033Y131671D01*
X84028Y131664D01*
X84001Y131500D01*
X84001Y126000D01*
X84003Y125988D01*
X84001Y125975D01*
X84023Y125891D01*
X84040Y125805D01*
X84048Y125795D01*
X84051Y125783D01*
X84147Y125647D01*
X85647Y124147D01*
X85658Y124140D01*
X85665Y124130D01*
X85740Y124086D01*
X85813Y124037D01*
X85825Y124035D01*
X85836Y124028D01*
X86000Y124001D01*
X87500Y124001D01*
X87508Y124002D01*
G37*
G36*
X87508Y94002D02*
X87508Y94002D01*
X87517Y94001D01*
X87605Y94022D01*
X87695Y94040D01*
X87702Y94045D01*
X87710Y94047D01*
X87783Y94101D01*
X87859Y94153D01*
X87863Y94160D01*
X87870Y94165D01*
X87917Y94243D01*
X87966Y94320D01*
X87967Y94329D01*
X87972Y94336D01*
X87999Y94500D01*
X87999Y101500D01*
X87999Y101504D01*
X87999Y101506D01*
X87998Y101510D01*
X87999Y101517D01*
X87978Y101605D01*
X87960Y101695D01*
X87955Y101702D01*
X87953Y101710D01*
X87899Y101783D01*
X87847Y101859D01*
X87840Y101863D01*
X87835Y101870D01*
X87757Y101917D01*
X87680Y101966D01*
X87671Y101967D01*
X87664Y101972D01*
X87500Y101999D01*
X86000Y101999D01*
X85988Y101997D01*
X85975Y101999D01*
X85891Y101977D01*
X85805Y101960D01*
X85795Y101953D01*
X85783Y101949D01*
X85647Y101853D01*
X84147Y100353D01*
X84140Y100342D01*
X84130Y100335D01*
X84086Y100260D01*
X84037Y100187D01*
X84035Y100175D01*
X84028Y100164D01*
X84001Y100000D01*
X84001Y94500D01*
X84002Y94492D01*
X84001Y94483D01*
X84022Y94395D01*
X84040Y94305D01*
X84045Y94298D01*
X84047Y94290D01*
X84101Y94217D01*
X84153Y94141D01*
X84160Y94137D01*
X84165Y94130D01*
X84243Y94083D01*
X84320Y94034D01*
X84329Y94033D01*
X84336Y94028D01*
X84500Y94001D01*
X87500Y94001D01*
X87508Y94002D01*
G37*
D10*
X13000Y98500D03*
X13000Y79500D03*
D11*
X94555Y31555D02*
X94555Y26445D01*
X89445Y26445D01*
X89445Y31555D01*
X94555Y31555D01*
X94555Y28240D02*
X89445Y28240D01*
X89445Y30035D02*
X94555Y30035D01*
X79445Y31555D02*
X79445Y26445D01*
X79445Y31555D02*
X84555Y31555D01*
X84555Y26445D01*
X79445Y26445D01*
X79445Y28240D02*
X84555Y28240D01*
X84555Y30035D02*
X79445Y30035D01*
X72555Y31555D02*
X72555Y26445D01*
X67445Y26445D01*
X67445Y31555D01*
X72555Y31555D01*
X72555Y28240D02*
X67445Y28240D01*
X67445Y30035D02*
X72555Y30035D01*
X57445Y31555D02*
X57445Y26445D01*
X57445Y31555D02*
X62555Y31555D01*
X62555Y26445D01*
X57445Y26445D01*
X57445Y28240D02*
X62555Y28240D01*
X62555Y30035D02*
X57445Y30035D01*
D10*
X106500Y173000D03*
X87500Y173000D03*
D11*
X120445Y157555D02*
X125555Y157555D01*
X125555Y152445D01*
X120445Y152445D01*
X120445Y157555D01*
X120445Y154240D02*
X125555Y154240D01*
X125555Y156035D02*
X120445Y156035D01*
X120445Y142445D02*
X125555Y142445D01*
X120445Y142445D02*
X120445Y147555D01*
X125555Y147555D01*
X125555Y142445D01*
X125555Y144240D02*
X120445Y144240D01*
X120445Y146035D02*
X125555Y146035D01*
X112555Y142445D02*
X107445Y142445D01*
X107445Y147555D01*
X112555Y147555D01*
X112555Y142445D01*
X112555Y144240D02*
X107445Y144240D01*
X107445Y146035D02*
X112555Y146035D01*
X112555Y157555D02*
X107445Y157555D01*
X112555Y157555D02*
X112555Y152445D01*
X107445Y152445D01*
X107445Y157555D01*
X107445Y154240D02*
X112555Y154240D01*
X112555Y156035D02*
X107445Y156035D01*
D12*
X81000Y103000D03*
D13*
X77720Y106720D02*
X86280Y106720D01*
X77720Y106720D02*
X77720Y109280D01*
X86280Y109280D01*
X86280Y106720D01*
X86280Y108088D02*
X77720Y108088D01*
X77720Y111720D02*
X86280Y111720D01*
X77720Y111720D02*
X77720Y114280D01*
X86280Y114280D01*
X86280Y111720D01*
X86280Y113088D02*
X77720Y113088D01*
X77720Y116720D02*
X86280Y116720D01*
X77720Y116720D02*
X77720Y119280D01*
X86280Y119280D01*
X86280Y116720D01*
X86280Y118088D02*
X77720Y118088D01*
D12*
X81000Y123000D03*
X86000Y128000D03*
D13*
X89720Y131280D02*
X89720Y122720D01*
X89720Y131280D02*
X92280Y131280D01*
X92280Y122720D01*
X89720Y122720D01*
X89720Y124088D02*
X92280Y124088D01*
X92280Y125456D02*
X89720Y125456D01*
X89720Y126824D02*
X92280Y126824D01*
X92280Y128192D02*
X89720Y128192D01*
X89720Y129560D02*
X92280Y129560D01*
X92280Y130928D02*
X89720Y130928D01*
X94720Y131280D02*
X94720Y122720D01*
X94720Y131280D02*
X97280Y131280D01*
X97280Y122720D01*
X94720Y122720D01*
X94720Y124088D02*
X97280Y124088D01*
X97280Y125456D02*
X94720Y125456D01*
X94720Y126824D02*
X97280Y126824D01*
X97280Y128192D02*
X94720Y128192D01*
X94720Y129560D02*
X97280Y129560D01*
X97280Y130928D02*
X94720Y130928D01*
X99720Y131280D02*
X99720Y122720D01*
X99720Y131280D02*
X102280Y131280D01*
X102280Y122720D01*
X99720Y122720D01*
X99720Y124088D02*
X102280Y124088D01*
X102280Y125456D02*
X99720Y125456D01*
X99720Y126824D02*
X102280Y126824D01*
X102280Y128192D02*
X99720Y128192D01*
X99720Y129560D02*
X102280Y129560D01*
X102280Y130928D02*
X99720Y130928D01*
D12*
X106000Y128000D03*
X111000Y123000D03*
D13*
X114280Y119280D02*
X105720Y119280D01*
X114280Y119280D02*
X114280Y116720D01*
X105720Y116720D01*
X105720Y119280D01*
X105720Y118088D02*
X114280Y118088D01*
X114280Y114280D02*
X105720Y114280D01*
X114280Y114280D02*
X114280Y111720D01*
X105720Y111720D01*
X105720Y114280D01*
X105720Y113088D02*
X114280Y113088D01*
X114280Y109280D02*
X105720Y109280D01*
X114280Y109280D02*
X114280Y106720D01*
X105720Y106720D01*
X105720Y109280D01*
X105720Y108088D02*
X114280Y108088D01*
D12*
X111000Y103000D03*
X106000Y98000D03*
D13*
X102280Y94720D02*
X102280Y103280D01*
X102280Y94720D02*
X99720Y94720D01*
X99720Y103280D01*
X102280Y103280D01*
X102280Y96088D02*
X99720Y96088D01*
X99720Y97456D02*
X102280Y97456D01*
X102280Y98824D02*
X99720Y98824D01*
X99720Y100192D02*
X102280Y100192D01*
X102280Y101560D02*
X99720Y101560D01*
X99720Y102928D02*
X102280Y102928D01*
X97280Y103280D02*
X97280Y94720D01*
X94720Y94720D01*
X94720Y103280D01*
X97280Y103280D01*
X97280Y96088D02*
X94720Y96088D01*
X94720Y97456D02*
X97280Y97456D01*
X97280Y98824D02*
X94720Y98824D01*
X94720Y100192D02*
X97280Y100192D01*
X97280Y101560D02*
X94720Y101560D01*
X94720Y102928D02*
X97280Y102928D01*
X92280Y103280D02*
X92280Y94720D01*
X89720Y94720D01*
X89720Y103280D01*
X92280Y103280D01*
X92280Y96088D02*
X89720Y96088D01*
X89720Y97456D02*
X92280Y97456D01*
X92280Y98824D02*
X89720Y98824D01*
X89720Y100192D02*
X92280Y100192D01*
X92280Y101560D02*
X89720Y101560D01*
X89720Y102928D02*
X92280Y102928D01*
D12*
X86000Y98000D03*
D11*
X54555Y91445D02*
X49445Y91445D01*
X49445Y96555D01*
X54555Y96555D01*
X54555Y91445D01*
X54555Y93240D02*
X49445Y93240D01*
X49445Y95035D02*
X54555Y95035D01*
X54555Y106555D02*
X49445Y106555D01*
X54555Y106555D02*
X54555Y101445D01*
X49445Y101445D01*
X49445Y106555D01*
X49445Y103240D02*
X54555Y103240D01*
X54555Y105035D02*
X49445Y105035D01*
D14*
X144000Y54000D03*
X144000Y72000D03*
X144000Y143000D03*
D11*
X54555Y113445D02*
X49445Y113445D01*
X49445Y118555D01*
X54555Y118555D01*
X54555Y113445D01*
X54555Y115240D02*
X49445Y115240D01*
X49445Y117035D02*
X54555Y117035D01*
X54555Y128555D02*
X49445Y128555D01*
X54555Y128555D02*
X54555Y123445D01*
X49445Y123445D01*
X49445Y128555D01*
X49445Y125240D02*
X54555Y125240D01*
X54555Y127035D02*
X49445Y127035D01*
X64555Y69555D02*
X64555Y64445D01*
X59445Y64445D01*
X59445Y69555D01*
X64555Y69555D01*
X64555Y66240D02*
X59445Y66240D01*
X59445Y68035D02*
X64555Y68035D01*
X49445Y69555D02*
X49445Y64445D01*
X49445Y69555D02*
X54555Y69555D01*
X54555Y64445D01*
X49445Y64445D01*
X49445Y66240D02*
X54555Y66240D01*
X54555Y68035D02*
X49445Y68035D01*
X49445Y76445D02*
X49445Y81555D01*
X54555Y81555D01*
X54555Y76445D01*
X49445Y76445D01*
X49445Y78240D02*
X54555Y78240D01*
X54555Y80035D02*
X49445Y80035D01*
X64555Y81555D02*
X64555Y76445D01*
X59445Y76445D01*
X59445Y81555D01*
X64555Y81555D01*
X64555Y78240D02*
X59445Y78240D01*
X59445Y80035D02*
X64555Y80035D01*
D14*
X144000Y36000D03*
X144000Y90000D03*
X144000Y125000D03*
X144000Y107000D03*
D15*
X124400Y12000D03*
X99000Y12000D03*
X73600Y12000D03*
M02*
